<!--
  Goddess Temple Discovery vector art
  Title: Boat of Heaven
  Subject: The high-prowed reed boat that carried the divine powers from Eridu to Uruk, bound in bundles, with Her looped reed-bundle standard raised amidships.
  Sources consulted: Getty Uruk transcript chapters 11 and 15 (Reed as a Raw Material); Holy_Inanna/IMAGES.md
  Author: Claude (Opus) for Jeremy Ellis, 2026
  License: Apache License 2.0 (see the LICENSE file at the repository root)
-->
<svg xmlns="http://www.w3.org/2000/svg" viewBox="0 0 400 400" width="400" height="400">
<g id="water">
<path d="M 30,318 C 60,306 80,306 110,318 C 140,330 160,330 190,318 C 220,306 240,306 270,318 C 300,330 320,330 350,318 L 370,316 L 370,344 L 30,344 Z" fill="#5B7BC4"/>
<path d="M 30,318 C 60,306 80,306 110,318 C 140,330 160,330 190,318 C 220,306 240,306 270,318 C 300,330 320,330 350,318 L 370,316" fill="none" stroke="#1E1A17" stroke-width="3" stroke-linejoin="round" stroke-linecap="round"/>
<path d="M 70,336 C 90,330 110,330 130,336 M 230,336 C 250,330 270,330 290,336" fill="none" stroke="#1E1A17" stroke-width="1.5" stroke-linejoin="round" stroke-linecap="round"/>
</g>
<g id="standard">
<g transform="translate(194 286) scale(0.7 0.7)"><path d="M 0,-327 C 52,-327 84,-300 84,-250 L 84,-112 L 60,-112 L 60,-250 C 60,-284 40,-300 20,-302 Z" fill="#7A8A3A" stroke="#1E1A17" stroke-width="4.3" stroke-linejoin="round" stroke-linecap="round"/>
<path d="M 60,-250 L 60,-112 L 72,-112 L 72,-250 C 72,-280 52,-300 30,-308 C 46,-296 60,-280 60,-250 Z" fill="#4E5A22"/>
<path d="M 20,-302 C 40,-299 58,-284 58,-252 L 58,-152 L 36,-152 L 36,-256 C 36,-274 30,-282 22,-284 Z" fill="#7A8A3A" stroke="#1E1A17" stroke-width="4.3" stroke-linejoin="round" stroke-linecap="round"/>
<path d="M 0,-327 C 52,-327 84,-300 84,-250 L 84,-112 L 60,-112 L 60,-250 C 60,-284 40,-300 20,-302" fill="none" stroke="#1E1A17" stroke-width="4.3" stroke-linejoin="round" stroke-linecap="round"/>
<polygon points="-27,0 27,0 15,-268 -15,-268" fill="#7A8A3A"/>
<polygon points="0,0 27,0 15,-268 0,-268" fill="#4E5A22"/>
<polygon points="-27,0 27,0 15,-268 -15,-268" fill="none" stroke="#1E1A17" stroke-width="4.3" stroke-linejoin="round" stroke-linecap="round"/>
<polygon points="-26.9,-48 26.9,-48 26,-68 -26,-68" fill="#E8C597" stroke="#1E1A17" stroke-width="4.3" stroke-linejoin="round" stroke-linecap="round"/>
<line x1="-26.6" y1="-54.7" x2="26.6" y2="-54.7" fill="none" stroke="#1E1A17" stroke-width="2.1" stroke-linejoin="round" stroke-linecap="round"/>
<line x1="-26.3" y1="-61.3" x2="26.3" y2="-61.3" fill="none" stroke="#1E1A17" stroke-width="2.1" stroke-linejoin="round" stroke-linecap="round"/>
<polygon points="-23.3,-128 23.3,-128 22.4,-148 -22.4,-148" fill="#E8C597" stroke="#1E1A17" stroke-width="4.3" stroke-linejoin="round" stroke-linecap="round"/>
<line x1="-23" y1="-134.7" x2="23" y2="-134.7" fill="none" stroke="#1E1A17" stroke-width="2.1" stroke-linejoin="round" stroke-linecap="round"/>
<line x1="-22.7" y1="-141.3" x2="22.7" y2="-141.3" fill="none" stroke="#1E1A17" stroke-width="2.1" stroke-linejoin="round" stroke-linecap="round"/>
<polygon points="-19.8,-206 19.8,-206 18.9,-226 -18.9,-226" fill="#E8C597" stroke="#1E1A17" stroke-width="4.3" stroke-linejoin="round" stroke-linecap="round"/>
<line x1="-19.5" y1="-212.7" x2="19.5" y2="-212.7" fill="none" stroke="#1E1A17" stroke-width="2.1" stroke-linejoin="round" stroke-linecap="round"/>
<line x1="-19.2" y1="-219.3" x2="19.2" y2="-219.3" fill="none" stroke="#1E1A17" stroke-width="2.1" stroke-linejoin="round" stroke-linecap="round"/>
<path d="M -38,-292 A 35 35 0 1 1 32,-292 A 35 35 0 1 1 -38,-292 Z M -16,-292 A 13 13 0 1 0 10,-292 A 13 13 0 1 0 -16,-292 Z" fill="#7A8A3A" stroke="#1E1A17" stroke-width="4.3" stroke-linejoin="round" stroke-linecap="round" fill-rule="evenodd"/>
<path d="M -3,-258 A 35 35 0 0 0 30,-280 A 30 30 0 0 1 -3,-264 Z" fill="#4E5A22"/></g>
</g>
<g id="hull">
<path d="M 56,148 C 66,262 118,306 200,306 C 290,306 344,254 352,116 L 336,124 C 326,228 272,272 200,272 C 128,272 86,240 74,156 Z" fill="#7A8A3A" stroke="#1E1A17" stroke-width="3" stroke-linejoin="round" stroke-linecap="round"/>
<path d="M 200,306 C 290,306 344,254 352,116 L 344,120 C 336,240 280,292 200,294 C 140,296 96,276 78,246 C 96,286 140,306 200,306 Z" fill="#4E5A22"/>
<path d="M 56,148 C 66,262 118,306 200,306 C 290,306 344,254 352,116 L 336,124 C 326,228 272,272 200,272 C 128,272 86,240 74,156 Z" fill="none" stroke="#1E1A17" stroke-width="3" stroke-linejoin="round" stroke-linecap="round"/>
<circle cx="60" cy="140" r="13" fill="#7A8A3A" stroke="#1E1A17" stroke-width="3" stroke-linejoin="round" stroke-linecap="round"/>
<circle cx="348" cy="106" r="15" fill="#7A8A3A" stroke="#1E1A17" stroke-width="3" stroke-linejoin="round" stroke-linecap="round"/>
<line x1="90" y1="232" x2="104" y2="260" fill="none" stroke="#1E1A17" stroke-width="1.5" stroke-linejoin="round" stroke-linecap="round"/>
<line x1="96" y1="231" x2="110" y2="259" fill="none" stroke="#1E1A17" stroke-width="1.5" stroke-linejoin="round" stroke-linecap="round"/>
<line x1="124" y1="254" x2="134" y2="286" fill="none" stroke="#1E1A17" stroke-width="1.5" stroke-linejoin="round" stroke-linecap="round"/>
<line x1="130" y1="253" x2="140" y2="285" fill="none" stroke="#1E1A17" stroke-width="1.5" stroke-linejoin="round" stroke-linecap="round"/>
<line x1="162" y1="266" x2="166" y2="300" fill="none" stroke="#1E1A17" stroke-width="1.5" stroke-linejoin="round" stroke-linecap="round"/>
<line x1="168" y1="265" x2="172" y2="299" fill="none" stroke="#1E1A17" stroke-width="1.5" stroke-linejoin="round" stroke-linecap="round"/>
<line x1="238" y1="266" x2="234" y2="300" fill="none" stroke="#1E1A17" stroke-width="1.5" stroke-linejoin="round" stroke-linecap="round"/>
<line x1="244" y1="265" x2="240" y2="299" fill="none" stroke="#1E1A17" stroke-width="1.5" stroke-linejoin="round" stroke-linecap="round"/>
<line x1="276" y1="254" x2="266" y2="288" fill="none" stroke="#1E1A17" stroke-width="1.5" stroke-linejoin="round" stroke-linecap="round"/>
<line x1="282" y1="253" x2="272" y2="287" fill="none" stroke="#1E1A17" stroke-width="1.5" stroke-linejoin="round" stroke-linecap="round"/>
<line x1="310" y1="226" x2="300" y2="260" fill="none" stroke="#1E1A17" stroke-width="1.5" stroke-linejoin="round" stroke-linecap="round"/>
<line x1="316" y1="225" x2="306" y2="259" fill="none" stroke="#1E1A17" stroke-width="1.5" stroke-linejoin="round" stroke-linecap="round"/>
</g>
</svg>
