<!--
  Goddess Temple Discovery vector art
  Title: Seeder Plow
  Subject: The Mesopotamian seeder plow, a wooden share with two handles, a long beam and an upright funnel that dropped barley seed into the furrow.
  Sources consulted: Getty Uruk transcript chapters 9 and 14 (agriculture of the Uruk plain)
  Author: Claude (Opus) for Jeremy Ellis, 2026
  License: Apache License 2.0 (see the LICENSE file at the repository root)
-->
<svg xmlns="http://www.w3.org/2000/svg" viewBox="0 0 400 400" width="400" height="400">
<g id="plow">
<line x1="40" y1="336" x2="360" y2="336" fill="none" stroke="#1E1A17" stroke-width="1.5" stroke-linejoin="round" stroke-linecap="round"/>
<path d="M 150,286 L 372,186 L 380,202 L 158,304 Z" fill="#9C6B3C" stroke="#1E1A17" stroke-width="3" stroke-linejoin="round" stroke-linecap="round"/>
<path d="M 366,170 L 388,216" fill="none" stroke="#1E1A17" stroke-width="9" stroke-linejoin="round" stroke-linecap="round"/>
<path d="M 60,122 L 80,116 L 146,312 L 124,316 Z" fill="#9C6B3C" stroke="#1E1A17" stroke-width="3" stroke-linejoin="round" stroke-linecap="round"/>
<path d="M 60,122 L 66,120 L 132,314 L 124,316 Z" fill="#C8955A"/>
<path d="M 60,122 L 80,116 L 146,312 L 124,316 Z" fill="none" stroke="#1E1A17" stroke-width="3" stroke-linejoin="round" stroke-linecap="round"/>
<path d="M 102,110 L 122,106 L 176,306 L 154,310 Z" fill="#9C6B3C" stroke="#1E1A17" stroke-width="3" stroke-linejoin="round" stroke-linecap="round"/>
<path d="M 102,110 L 108,108 L 162,308 L 154,310 Z" fill="#C8955A"/>
<path d="M 102,110 L 122,106 L 176,306 L 154,310 Z" fill="none" stroke="#1E1A17" stroke-width="3" stroke-linejoin="round" stroke-linecap="round"/>
<line x1="84" y1="176" x2="124" y2="168" fill="none" stroke="#1E1A17" stroke-width="3" stroke-linejoin="round" stroke-linecap="round"/>
<path d="M 100,334 L 106,304 L 270,296 L 336,330 L 330,336 Z" fill="#9C6B3C" stroke="#1E1A17" stroke-width="3" stroke-linejoin="round" stroke-linecap="round"/>
<path d="M 106,304 L 270,296 L 336,330 L 300,330 L 262,308 L 106,314 Z" fill="#C8955A"/>
<path d="M 100,334 L 106,304 L 270,296 L 336,330 L 330,336 Z" fill="none" stroke="#1E1A17" stroke-width="3" stroke-linejoin="round" stroke-linecap="round"/>
<path d="M 222,300 L 222,140 L 242,140 L 244,298 Z" fill="#C8955A" stroke="#1E1A17" stroke-width="3" stroke-linejoin="round" stroke-linecap="round"/>
<path d="M 236,140 L 242,140 L 244,298 L 238,298 Z" fill="#9C6B3C"/>
<path d="M 222,300 L 222,140 L 242,140 L 244,298 Z" fill="none" stroke="#1E1A17" stroke-width="3" stroke-linejoin="round" stroke-linecap="round"/>
<path d="M 176,84 L 288,84 L 244,146 L 220,146 Z" fill="#E8C597" stroke="#1E1A17" stroke-width="3" stroke-linejoin="round" stroke-linecap="round"/>
<path d="M 262,84 L 288,84 L 244,146 L 236,146 Z" fill="#9C6B3C"/>
<path d="M 176,84 L 288,84 L 244,146 L 220,146 Z" fill="none" stroke="#1E1A17" stroke-width="3" stroke-linejoin="round" stroke-linecap="round"/>
<path d="M 180,84 C 196,62 266,62 284,84 Z" fill="#D9A441" stroke="#1E1A17" stroke-width="3" stroke-linejoin="round" stroke-linecap="round"/>
<circle cx="206" cy="76" r="4" fill="#A8761F"/>
<circle cx="226" cy="70" r="4" fill="#A8761F"/>
<circle cx="248" cy="72" r="4" fill="#A8761F"/>
<circle cx="264" cy="78" r="4" fill="#A8761F"/>
<circle cx="234" cy="80" r="4" fill="#A8761F"/>
<circle cx="270" cy="318" r="5" fill="#D9A441" stroke="#1E1A17" stroke-width="1.5" stroke-linejoin="round" stroke-linecap="round"/>
<circle cx="292" cy="326" r="5" fill="#D9A441" stroke="#1E1A17" stroke-width="1.5" stroke-linejoin="round" stroke-linecap="round"/>
<circle cx="250" cy="324" r="5" fill="#D9A441" stroke="#1E1A17" stroke-width="1.5" stroke-linejoin="round" stroke-linecap="round"/>
</g>
</svg>
