<svg xmlns="http://www.w3.org/2000/svg" viewBox="0 0 400 400" width="400" height="400">
<!--
  Goddess Temple Discovery vector art
  Title: Cone Mosaic Panel
  Subject: A square of Late Uruk wall mosaic: thousands of clay cone heads dipped red, white and black and pressed into mud plaster in zigzag bands and lozenges, the clay translation of woven reed mats.
  Sources consulted: Julius_Jordan_Eanna/images Cone_mosaic_panel_IraqMuseum.jpg, Cone_mosaic_panels_IraqMuseum.jpg, Pergamon_Eanna_cone_mosaics_8057.jpg; BUILDING_HIGHLIGHTS.txt Stone-Cone Building
  Author: Claude (Opus) for Jeremy Ellis, 2026
  License: Apache License 2.0 (see the LICENSE file at the repository root)
-->
<g id="plaster">
<path d="M46,46 L354,46 L366,58 L366,366 L58,366 L46,354 Z" fill="#C8955A" stroke="#1E1A17" stroke-width="3" stroke-linejoin="round" stroke-linecap="round"/>
<rect x="46" y="46" width="308" height="308" fill="#E8C597" stroke="#1E1A17" stroke-width="3" stroke-linejoin="round"/>
<line x1="354" y1="354" x2="366" y2="366" stroke="#1E1A17" stroke-width="1.5" stroke-linecap="round"/>
</g>
<g id="mosaic">
<circle cx="54" cy="54" r="6.9" fill="#F4EFE3" stroke="#1E1A17" stroke-width="1.5"/>
<circle cx="68.6" cy="54" r="6.9" fill="#F4EFE3" stroke="#1E1A17" stroke-width="1.5"/>
<circle cx="83.2" cy="54" r="6.9" fill="#2B2622" stroke="#1E1A17" stroke-width="1.5"/>
<circle cx="97.8" cy="54" r="6.9" fill="#2B2622" stroke="#1E1A17" stroke-width="1.5"/>
<circle cx="112.4" cy="54" r="6.9" fill="#2B2622" stroke="#1E1A17" stroke-width="1.5"/>
<circle cx="127" cy="54" r="6.9" fill="#2B2622" stroke="#1E1A17" stroke-width="1.5"/>
<circle cx="141.6" cy="54" r="6.9" fill="#F4EFE3" stroke="#1E1A17" stroke-width="1.5"/>
<circle cx="156.2" cy="54" r="6.9" fill="#F4EFE3" stroke="#1E1A17" stroke-width="1.5"/>
<circle cx="170.8" cy="54" r="6.9" fill="#F4EFE3" stroke="#1E1A17" stroke-width="1.5"/>
<circle cx="185.4" cy="54" r="6.9" fill="#F4EFE3" stroke="#1E1A17" stroke-width="1.5"/>
<circle cx="200" cy="54" r="6.9" fill="#2B2622" stroke="#1E1A17" stroke-width="1.5"/>
<circle cx="214.6" cy="54" r="6.9" fill="#2B2622" stroke="#1E1A17" stroke-width="1.5"/>
<circle cx="229.2" cy="54" r="6.9" fill="#2B2622" stroke="#1E1A17" stroke-width="1.5"/>
<circle cx="243.8" cy="54" r="6.9" fill="#2B2622" stroke="#1E1A17" stroke-width="1.5"/>
<circle cx="258.4" cy="54" r="6.9" fill="#F4EFE3" stroke="#1E1A17" stroke-width="1.5"/>
<circle cx="273" cy="54" r="6.9" fill="#F4EFE3" stroke="#1E1A17" stroke-width="1.5"/>
<circle cx="287.6" cy="54" r="6.9" fill="#F4EFE3" stroke="#1E1A17" stroke-width="1.5"/>
<circle cx="302.2" cy="54" r="6.9" fill="#F4EFE3" stroke="#1E1A17" stroke-width="1.5"/>
<circle cx="316.8" cy="54" r="6.9" fill="#2B2622" stroke="#1E1A17" stroke-width="1.5"/>
<circle cx="331.4" cy="54" r="6.9" fill="#2B2622" stroke="#1E1A17" stroke-width="1.5"/>
<circle cx="346" cy="54" r="6.9" fill="#2B2622" stroke="#1E1A17" stroke-width="1.5"/>
<circle cx="61.3" cy="66.6" r="6.9" fill="#B8322A" stroke="#1E1A17" stroke-width="1.5"/>
<circle cx="75.9" cy="66.6" r="6.9" fill="#F4EFE3" stroke="#1E1A17" stroke-width="1.5"/>
<circle cx="90.5" cy="66.6" r="6.9" fill="#F4EFE3" stroke="#1E1A17" stroke-width="1.5"/>
<circle cx="105.1" cy="66.6" r="6.9" fill="#2B2622" stroke="#1E1A17" stroke-width="1.5"/>
<circle cx="119.7" cy="66.6" r="6.9" fill="#F4EFE3" stroke="#1E1A17" stroke-width="1.5"/>
<circle cx="134.3" cy="66.6" r="6.9" fill="#F4EFE3" stroke="#1E1A17" stroke-width="1.5"/>
<circle cx="148.9" cy="66.6" r="6.9" fill="#B8322A" stroke="#1E1A17" stroke-width="1.5"/>
<circle cx="163.5" cy="66.6" r="6.9" fill="#B8322A" stroke="#1E1A17" stroke-width="1.5"/>
<circle cx="178.1" cy="66.6" r="6.9" fill="#F4EFE3" stroke="#1E1A17" stroke-width="1.5"/>
<circle cx="192.7" cy="66.6" r="6.9" fill="#F4EFE3" stroke="#1E1A17" stroke-width="1.5"/>
<circle cx="207.3" cy="66.6" r="6.9" fill="#F4EFE3" stroke="#1E1A17" stroke-width="1.5"/>
<circle cx="221.9" cy="66.6" r="6.9" fill="#2B2622" stroke="#1E1A17" stroke-width="1.5"/>
<circle cx="236.5" cy="66.6" r="6.9" fill="#F4EFE3" stroke="#1E1A17" stroke-width="1.5"/>
<circle cx="251.1" cy="66.6" r="6.9" fill="#F4EFE3" stroke="#1E1A17" stroke-width="1.5"/>
<circle cx="265.7" cy="66.6" r="6.9" fill="#B8322A" stroke="#1E1A17" stroke-width="1.5"/>
<circle cx="280.3" cy="66.6" r="6.9" fill="#B8322A" stroke="#1E1A17" stroke-width="1.5"/>
<circle cx="294.9" cy="66.6" r="6.9" fill="#F4EFE3" stroke="#1E1A17" stroke-width="1.5"/>
<circle cx="309.5" cy="66.6" r="6.9" fill="#F4EFE3" stroke="#1E1A17" stroke-width="1.5"/>
<circle cx="324.1" cy="66.6" r="6.9" fill="#F4EFE3" stroke="#1E1A17" stroke-width="1.5"/>
<circle cx="338.7" cy="66.6" r="6.9" fill="#2B2622" stroke="#1E1A17" stroke-width="1.5"/>
<circle cx="54" cy="79.2" r="6.9" fill="#B8322A" stroke="#1E1A17" stroke-width="1.5"/>
<circle cx="68.6" cy="79.2" r="6.9" fill="#B8322A" stroke="#1E1A17" stroke-width="1.5"/>
<circle cx="83.2" cy="79.2" r="6.9" fill="#F4EFE3" stroke="#1E1A17" stroke-width="1.5"/>
<circle cx="97.8" cy="79.2" r="6.9" fill="#F4EFE3" stroke="#1E1A17" stroke-width="1.5"/>
<circle cx="112.4" cy="79.2" r="6.9" fill="#F4EFE3" stroke="#1E1A17" stroke-width="1.5"/>
<circle cx="127" cy="79.2" r="6.9" fill="#F4EFE3" stroke="#1E1A17" stroke-width="1.5"/>
<circle cx="141.6" cy="79.2" r="6.9" fill="#B8322A" stroke="#1E1A17" stroke-width="1.5"/>
<circle cx="156.2" cy="79.2" r="6.9" fill="#B8322A" stroke="#1E1A17" stroke-width="1.5"/>
<circle cx="170.8" cy="79.2" r="6.9" fill="#B8322A" stroke="#1E1A17" stroke-width="1.5"/>
<circle cx="185.4" cy="79.2" r="6.9" fill="#B8322A" stroke="#1E1A17" stroke-width="1.5"/>
<circle cx="200" cy="79.2" r="6.9" fill="#F4EFE3" stroke="#1E1A17" stroke-width="1.5"/>
<circle cx="214.6" cy="79.2" r="6.9" fill="#F4EFE3" stroke="#1E1A17" stroke-width="1.5"/>
<circle cx="229.2" cy="79.2" r="6.9" fill="#F4EFE3" stroke="#1E1A17" stroke-width="1.5"/>
<circle cx="243.8" cy="79.2" r="6.9" fill="#F4EFE3" stroke="#1E1A17" stroke-width="1.5"/>
<circle cx="258.4" cy="79.2" r="6.9" fill="#B8322A" stroke="#1E1A17" stroke-width="1.5"/>
<circle cx="273" cy="79.2" r="6.9" fill="#B8322A" stroke="#1E1A17" stroke-width="1.5"/>
<circle cx="287.6" cy="79.2" r="6.9" fill="#B8322A" stroke="#1E1A17" stroke-width="1.5"/>
<circle cx="302.2" cy="79.2" r="6.9" fill="#B8322A" stroke="#1E1A17" stroke-width="1.5"/>
<circle cx="316.8" cy="79.2" r="6.9" fill="#F4EFE3" stroke="#1E1A17" stroke-width="1.5"/>
<circle cx="331.4" cy="79.2" r="6.9" fill="#F4EFE3" stroke="#1E1A17" stroke-width="1.5"/>
<circle cx="346" cy="79.2" r="6.9" fill="#F4EFE3" stroke="#1E1A17" stroke-width="1.5"/>
<circle cx="61.3" cy="91.8" r="6.9" fill="#F4EFE3" stroke="#1E1A17" stroke-width="1.5"/>
<circle cx="75.9" cy="91.8" r="6.9" fill="#B8322A" stroke="#1E1A17" stroke-width="1.5"/>
<circle cx="90.5" cy="91.8" r="6.9" fill="#B8322A" stroke="#1E1A17" stroke-width="1.5"/>
<circle cx="105.1" cy="91.8" r="6.9" fill="#F4EFE3" stroke="#1E1A17" stroke-width="1.5"/>
<circle cx="119.7" cy="91.8" r="6.9" fill="#B8322A" stroke="#1E1A17" stroke-width="1.5"/>
<circle cx="134.3" cy="91.8" r="6.9" fill="#B8322A" stroke="#1E1A17" stroke-width="1.5"/>
<circle cx="148.9" cy="91.8" r="6.9" fill="#F4EFE3" stroke="#1E1A17" stroke-width="1.5"/>
<circle cx="163.5" cy="91.8" r="6.9" fill="#F4EFE3" stroke="#1E1A17" stroke-width="1.5"/>
<circle cx="178.1" cy="91.8" r="6.9" fill="#B8322A" stroke="#1E1A17" stroke-width="1.5"/>
<circle cx="192.7" cy="91.8" r="6.9" fill="#B8322A" stroke="#1E1A17" stroke-width="1.5"/>
<circle cx="207.3" cy="91.8" r="6.9" fill="#B8322A" stroke="#1E1A17" stroke-width="1.5"/>
<circle cx="221.9" cy="91.8" r="6.9" fill="#F4EFE3" stroke="#1E1A17" stroke-width="1.5"/>
<circle cx="236.5" cy="91.8" r="6.9" fill="#B8322A" stroke="#1E1A17" stroke-width="1.5"/>
<circle cx="251.1" cy="91.8" r="6.9" fill="#B8322A" stroke="#1E1A17" stroke-width="1.5"/>
<circle cx="265.7" cy="91.8" r="6.9" fill="#F4EFE3" stroke="#1E1A17" stroke-width="1.5"/>
<circle cx="280.3" cy="91.8" r="6.9" fill="#F4EFE3" stroke="#1E1A17" stroke-width="1.5"/>
<circle cx="294.9" cy="91.8" r="6.9" fill="#B8322A" stroke="#1E1A17" stroke-width="1.5"/>
<circle cx="309.5" cy="91.8" r="6.9" fill="#B8322A" stroke="#1E1A17" stroke-width="1.5"/>
<circle cx="324.1" cy="91.8" r="6.9" fill="#B8322A" stroke="#1E1A17" stroke-width="1.5"/>
<circle cx="338.7" cy="91.8" r="6.9" fill="#F4EFE3" stroke="#1E1A17" stroke-width="1.5"/>
<circle cx="54" cy="104.4" r="6.9" fill="#F4EFE3" stroke="#1E1A17" stroke-width="1.5"/>
<circle cx="68.6" cy="104.4" r="6.9" fill="#F4EFE3" stroke="#1E1A17" stroke-width="1.5"/>
<circle cx="83.2" cy="104.4" r="6.9" fill="#B8322A" stroke="#1E1A17" stroke-width="1.5"/>
<circle cx="97.8" cy="104.4" r="6.9" fill="#B8322A" stroke="#1E1A17" stroke-width="1.5"/>
<circle cx="112.4" cy="104.4" r="6.9" fill="#B8322A" stroke="#1E1A17" stroke-width="1.5"/>
<circle cx="127" cy="104.4" r="6.9" fill="#B8322A" stroke="#1E1A17" stroke-width="1.5"/>
<circle cx="141.6" cy="104.4" r="6.9" fill="#F4EFE3" stroke="#1E1A17" stroke-width="1.5"/>
<circle cx="156.2" cy="104.4" r="6.9" fill="#F4EFE3" stroke="#1E1A17" stroke-width="1.5"/>
<circle cx="170.8" cy="104.4" r="6.9" fill="#F4EFE3" stroke="#1E1A17" stroke-width="1.5"/>
<circle cx="185.4" cy="104.4" r="6.9" fill="#F4EFE3" stroke="#1E1A17" stroke-width="1.5"/>
<circle cx="200" cy="104.4" r="6.9" fill="#B8322A" stroke="#1E1A17" stroke-width="1.5"/>
<circle cx="214.6" cy="104.4" r="6.9" fill="#B8322A" stroke="#1E1A17" stroke-width="1.5"/>
<circle cx="229.2" cy="104.4" r="6.9" fill="#B8322A" stroke="#1E1A17" stroke-width="1.5"/>
<circle cx="243.8" cy="104.4" r="6.9" fill="#B8322A" stroke="#1E1A17" stroke-width="1.5"/>
<circle cx="258.4" cy="104.4" r="6.9" fill="#F4EFE3" stroke="#1E1A17" stroke-width="1.5"/>
<circle cx="273" cy="104.4" r="6.9" fill="#F4EFE3" stroke="#1E1A17" stroke-width="1.5"/>
<circle cx="287.6" cy="104.4" r="6.9" fill="#F4EFE3" stroke="#1E1A17" stroke-width="1.5"/>
<circle cx="302.2" cy="104.4" r="6.9" fill="#F4EFE3" stroke="#1E1A17" stroke-width="1.5"/>
<circle cx="316.8" cy="104.4" r="6.9" fill="#B8322A" stroke="#1E1A17" stroke-width="1.5"/>
<circle cx="331.4" cy="104.4" r="6.9" fill="#B8322A" stroke="#1E1A17" stroke-width="1.5"/>
<circle cx="346" cy="104.4" r="6.9" fill="#B8322A" stroke="#1E1A17" stroke-width="1.5"/>
<circle cx="61.3" cy="117" r="6.9" fill="#2B2622" stroke="#1E1A17" stroke-width="1.5"/>
<circle cx="75.9" cy="117" r="6.9" fill="#F4EFE3" stroke="#1E1A17" stroke-width="1.5"/>
<circle cx="90.5" cy="117" r="6.9" fill="#F4EFE3" stroke="#1E1A17" stroke-width="1.5"/>
<circle cx="105.1" cy="117" r="6.9" fill="#B8322A" stroke="#1E1A17" stroke-width="1.5"/>
<circle cx="119.7" cy="117" r="6.9" fill="#F4EFE3" stroke="#1E1A17" stroke-width="1.5"/>
<circle cx="134.3" cy="117" r="6.9" fill="#F4EFE3" stroke="#1E1A17" stroke-width="1.5"/>
<circle cx="148.9" cy="117" r="6.9" fill="#2B2622" stroke="#1E1A17" stroke-width="1.5"/>
<circle cx="163.5" cy="117" r="6.9" fill="#2B2622" stroke="#1E1A17" stroke-width="1.5"/>
<circle cx="178.1" cy="117" r="6.9" fill="#F4EFE3" stroke="#1E1A17" stroke-width="1.5"/>
<circle cx="192.7" cy="117" r="6.9" fill="#F4EFE3" stroke="#1E1A17" stroke-width="1.5"/>
<circle cx="207.3" cy="117" r="6.9" fill="#F4EFE3" stroke="#1E1A17" stroke-width="1.5"/>
<circle cx="221.9" cy="117" r="6.9" fill="#B8322A" stroke="#1E1A17" stroke-width="1.5"/>
<circle cx="236.5" cy="117" r="6.9" fill="#F4EFE3" stroke="#1E1A17" stroke-width="1.5"/>
<circle cx="251.1" cy="117" r="6.9" fill="#F4EFE3" stroke="#1E1A17" stroke-width="1.5"/>
<circle cx="265.7" cy="117" r="6.9" fill="#2B2622" stroke="#1E1A17" stroke-width="1.5"/>
<circle cx="280.3" cy="117" r="6.9" fill="#2B2622" stroke="#1E1A17" stroke-width="1.5"/>
<circle cx="294.9" cy="117" r="6.9" fill="#F4EFE3" stroke="#1E1A17" stroke-width="1.5"/>
<circle cx="309.5" cy="117" r="6.9" fill="#F4EFE3" stroke="#1E1A17" stroke-width="1.5"/>
<circle cx="324.1" cy="117" r="6.9" fill="#F4EFE3" stroke="#1E1A17" stroke-width="1.5"/>
<circle cx="338.7" cy="117" r="6.9" fill="#B8322A" stroke="#1E1A17" stroke-width="1.5"/>
<circle cx="54" cy="129.6" r="6.9" fill="#2B2622" stroke="#1E1A17" stroke-width="1.5"/>
<circle cx="68.6" cy="129.6" r="6.9" fill="#2B2622" stroke="#1E1A17" stroke-width="1.5"/>
<circle cx="83.2" cy="129.6" r="6.9" fill="#F4EFE3" stroke="#1E1A17" stroke-width="1.5"/>
<circle cx="97.8" cy="129.6" r="6.9" fill="#F4EFE3" stroke="#1E1A17" stroke-width="1.5"/>
<circle cx="112.4" cy="129.6" r="6.9" fill="#F4EFE3" stroke="#1E1A17" stroke-width="1.5"/>
<circle cx="127" cy="129.6" r="6.9" fill="#F4EFE3" stroke="#1E1A17" stroke-width="1.5"/>
<circle cx="141.6" cy="129.6" r="6.9" fill="#2B2622" stroke="#1E1A17" stroke-width="1.5"/>
<circle cx="156.2" cy="129.6" r="6.9" fill="#2B2622" stroke="#1E1A17" stroke-width="1.5"/>
<circle cx="170.8" cy="129.6" r="6.9" fill="#2B2622" stroke="#1E1A17" stroke-width="1.5"/>
<circle cx="185.4" cy="129.6" r="6.9" fill="#2B2622" stroke="#1E1A17" stroke-width="1.5"/>
<circle cx="200" cy="129.6" r="6.9" fill="#F4EFE3" stroke="#1E1A17" stroke-width="1.5"/>
<circle cx="214.6" cy="129.6" r="6.9" fill="#F4EFE3" stroke="#1E1A17" stroke-width="1.5"/>
<circle cx="229.2" cy="129.6" r="6.9" fill="#F4EFE3" stroke="#1E1A17" stroke-width="1.5"/>
<circle cx="243.8" cy="129.6" r="6.9" fill="#2B2622" stroke="#1E1A17" stroke-width="1.5"/>
<circle cx="258.4" cy="129.6" r="6.9" fill="#2B2622" stroke="#1E1A17" stroke-width="1.5"/>
<circle cx="273" cy="129.6" r="6.9" fill="#2B2622" stroke="#1E1A17" stroke-width="1.5"/>
<circle cx="287.6" cy="129.6" r="6.9" fill="#2B2622" stroke="#1E1A17" stroke-width="1.5"/>
<circle cx="302.2" cy="129.6" r="6.9" fill="#2B2622" stroke="#1E1A17" stroke-width="1.5"/>
<circle cx="316.8" cy="129.6" r="6.9" fill="#F4EFE3" stroke="#1E1A17" stroke-width="1.5"/>
<circle cx="331.4" cy="129.6" r="6.9" fill="#F4EFE3" stroke="#1E1A17" stroke-width="1.5"/>
<circle cx="346" cy="129.6" r="6.9" fill="#F4EFE3" stroke="#1E1A17" stroke-width="1.5"/>
<circle cx="61.3" cy="142.2" r="6.9" fill="#F4EFE3" stroke="#1E1A17" stroke-width="1.5"/>
<circle cx="75.9" cy="142.2" r="6.9" fill="#F4EFE3" stroke="#1E1A17" stroke-width="1.5"/>
<circle cx="90.5" cy="142.2" r="6.9" fill="#F4EFE3" stroke="#1E1A17" stroke-width="1.5"/>
<circle cx="105.1" cy="142.2" r="6.9" fill="#F4EFE3" stroke="#1E1A17" stroke-width="1.5"/>
<circle cx="119.7" cy="142.2" r="6.9" fill="#F4EFE3" stroke="#1E1A17" stroke-width="1.5"/>
<circle cx="134.3" cy="142.2" r="6.9" fill="#F4EFE3" stroke="#1E1A17" stroke-width="1.5"/>
<circle cx="148.9" cy="142.2" r="6.9" fill="#F4EFE3" stroke="#1E1A17" stroke-width="1.5"/>
<circle cx="163.5" cy="142.2" r="6.9" fill="#2B2622" stroke="#1E1A17" stroke-width="1.5"/>
<circle cx="178.1" cy="142.2" r="6.9" fill="#F4EFE3" stroke="#1E1A17" stroke-width="1.5"/>
<circle cx="192.7" cy="142.2" r="6.9" fill="#F4EFE3" stroke="#1E1A17" stroke-width="1.5"/>
<circle cx="207.3" cy="142.2" r="6.9" fill="#F4EFE3" stroke="#1E1A17" stroke-width="1.5"/>
<circle cx="221.9" cy="142.2" r="6.9" fill="#F4EFE3" stroke="#1E1A17" stroke-width="1.5"/>
<circle cx="236.5" cy="142.2" r="6.9" fill="#F4EFE3" stroke="#1E1A17" stroke-width="1.5"/>
<circle cx="251.1" cy="142.2" r="6.9" fill="#F4EFE3" stroke="#1E1A17" stroke-width="1.5"/>
<circle cx="265.7" cy="142.2" r="6.9" fill="#F4EFE3" stroke="#1E1A17" stroke-width="1.5"/>
<circle cx="280.3" cy="142.2" r="6.9" fill="#F4EFE3" stroke="#1E1A17" stroke-width="1.5"/>
<circle cx="294.9" cy="142.2" r="6.9" fill="#F4EFE3" stroke="#1E1A17" stroke-width="1.5"/>
<circle cx="309.5" cy="142.2" r="6.9" fill="#F4EFE3" stroke="#1E1A17" stroke-width="1.5"/>
<circle cx="324.1" cy="142.2" r="6.9" fill="#F4EFE3" stroke="#1E1A17" stroke-width="1.5"/>
<circle cx="338.7" cy="142.2" r="6.9" fill="#F4EFE3" stroke="#1E1A17" stroke-width="1.5"/>
<circle cx="54" cy="154.8" r="6.9" fill="#F4EFE3" stroke="#1E1A17" stroke-width="1.5"/>
<circle cx="68.6" cy="154.8" r="6.9" fill="#F4EFE3" stroke="#1E1A17" stroke-width="1.5"/>
<circle cx="83.2" cy="154.8" r="6.9" fill="#F4EFE3" stroke="#1E1A17" stroke-width="1.5"/>
<circle cx="97.8" cy="154.8" r="6.9" fill="#F4EFE3" stroke="#1E1A17" stroke-width="1.5"/>
<circle cx="112.4" cy="154.8" r="6.9" fill="#F4EFE3" stroke="#1E1A17" stroke-width="1.5"/>
<circle cx="127" cy="154.8" r="6.9" fill="#F4EFE3" stroke="#1E1A17" stroke-width="1.5"/>
<circle cx="141.6" cy="154.8" r="6.9" fill="#F4EFE3" stroke="#1E1A17" stroke-width="1.5"/>
<circle cx="156.2" cy="154.8" r="6.9" fill="#F4EFE3" stroke="#1E1A17" stroke-width="1.5"/>
<circle cx="170.8" cy="154.8" r="6.9" fill="#F4EFE3" stroke="#1E1A17" stroke-width="1.5"/>
<circle cx="185.4" cy="154.8" r="6.9" fill="#F4EFE3" stroke="#1E1A17" stroke-width="1.5"/>
<circle cx="200" cy="154.8" r="6.9" fill="#F4EFE3" stroke="#1E1A17" stroke-width="1.5"/>
<circle cx="214.6" cy="154.8" r="6.9" fill="#F4EFE3" stroke="#1E1A17" stroke-width="1.5"/>
<circle cx="229.2" cy="154.8" r="6.9" fill="#F4EFE3" stroke="#1E1A17" stroke-width="1.5"/>
<circle cx="243.8" cy="154.8" r="6.9" fill="#F4EFE3" stroke="#1E1A17" stroke-width="1.5"/>
<circle cx="258.4" cy="154.8" r="6.9" fill="#F4EFE3" stroke="#1E1A17" stroke-width="1.5"/>
<circle cx="273" cy="154.8" r="6.9" fill="#F4EFE3" stroke="#1E1A17" stroke-width="1.5"/>
<circle cx="287.6" cy="154.8" r="6.9" fill="#F4EFE3" stroke="#1E1A17" stroke-width="1.5"/>
<circle cx="302.2" cy="154.8" r="6.9" fill="#F4EFE3" stroke="#1E1A17" stroke-width="1.5"/>
<circle cx="316.8" cy="154.8" r="6.9" fill="#F4EFE3" stroke="#1E1A17" stroke-width="1.5"/>
<circle cx="331.4" cy="154.8" r="6.9" fill="#F4EFE3" stroke="#1E1A17" stroke-width="1.5"/>
<circle cx="346" cy="154.8" r="6.9" fill="#F4EFE3" stroke="#1E1A17" stroke-width="1.5"/>
<circle cx="61.3" cy="167.4" r="6.9" fill="#F4EFE3" stroke="#1E1A17" stroke-width="1.5"/>
<circle cx="75.9" cy="167.4" r="6.9" fill="#F4EFE3" stroke="#1E1A17" stroke-width="1.5"/>
<circle cx="90.5" cy="167.4" r="6.9" fill="#F4EFE3" stroke="#1E1A17" stroke-width="1.5"/>
<circle cx="105.1" cy="167.4" r="6.9" fill="#F4EFE3" stroke="#1E1A17" stroke-width="1.5"/>
<circle cx="119.7" cy="167.4" r="6.9" fill="#F4EFE3" stroke="#1E1A17" stroke-width="1.5"/>
<circle cx="134.3" cy="167.4" r="6.9" fill="#F4EFE3" stroke="#1E1A17" stroke-width="1.5"/>
<circle cx="148.9" cy="167.4" r="6.9" fill="#F4EFE3" stroke="#1E1A17" stroke-width="1.5"/>
<circle cx="163.5" cy="167.4" r="6.9" fill="#2B2622" stroke="#1E1A17" stroke-width="1.5"/>
<circle cx="178.1" cy="167.4" r="6.9" fill="#F4EFE3" stroke="#1E1A17" stroke-width="1.5"/>
<circle cx="192.7" cy="167.4" r="6.9" fill="#F4EFE3" stroke="#1E1A17" stroke-width="1.5"/>
<circle cx="207.3" cy="167.4" r="6.9" fill="#F4EFE3" stroke="#1E1A17" stroke-width="1.5"/>
<circle cx="221.9" cy="167.4" r="6.9" fill="#F4EFE3" stroke="#1E1A17" stroke-width="1.5"/>
<circle cx="236.5" cy="167.4" r="6.9" fill="#F4EFE3" stroke="#1E1A17" stroke-width="1.5"/>
<circle cx="251.1" cy="167.4" r="6.9" fill="#F4EFE3" stroke="#1E1A17" stroke-width="1.5"/>
<circle cx="265.7" cy="167.4" r="6.9" fill="#F4EFE3" stroke="#1E1A17" stroke-width="1.5"/>
<circle cx="280.3" cy="167.4" r="6.9" fill="#2B2622" stroke="#1E1A17" stroke-width="1.5"/>
<circle cx="294.9" cy="167.4" r="6.9" fill="#F4EFE3" stroke="#1E1A17" stroke-width="1.5"/>
<circle cx="309.5" cy="167.4" r="6.9" fill="#F4EFE3" stroke="#1E1A17" stroke-width="1.5"/>
<circle cx="324.1" cy="167.4" r="6.9" fill="#F4EFE3" stroke="#1E1A17" stroke-width="1.5"/>
<circle cx="338.7" cy="167.4" r="6.9" fill="#F4EFE3" stroke="#1E1A17" stroke-width="1.5"/>
<circle cx="54" cy="180" r="6.9" fill="#2B2622" stroke="#1E1A17" stroke-width="1.5"/>
<circle cx="68.6" cy="180" r="6.9" fill="#F4EFE3" stroke="#1E1A17" stroke-width="1.5"/>
<circle cx="83.2" cy="180" r="6.9" fill="#F4EFE3" stroke="#1E1A17" stroke-width="1.5"/>
<circle cx="97.8" cy="180" r="6.9" fill="#F4EFE3" stroke="#1E1A17" stroke-width="1.5"/>
<circle cx="112.4" cy="180" r="6.9" fill="#F4EFE3" stroke="#1E1A17" stroke-width="1.5"/>
<circle cx="127" cy="180" r="6.9" fill="#F4EFE3" stroke="#1E1A17" stroke-width="1.5"/>
<circle cx="141.6" cy="180" r="6.9" fill="#2B2622" stroke="#1E1A17" stroke-width="1.5"/>
<circle cx="156.2" cy="180" r="6.9" fill="#2B2622" stroke="#1E1A17" stroke-width="1.5"/>
<circle cx="170.8" cy="180" r="6.9" fill="#2B2622" stroke="#1E1A17" stroke-width="1.5"/>
<circle cx="185.4" cy="180" r="6.9" fill="#F4EFE3" stroke="#1E1A17" stroke-width="1.5"/>
<circle cx="200" cy="180" r="6.9" fill="#F4EFE3" stroke="#1E1A17" stroke-width="1.5"/>
<circle cx="214.6" cy="180" r="6.9" fill="#F4EFE3" stroke="#1E1A17" stroke-width="1.5"/>
<circle cx="229.2" cy="180" r="6.9" fill="#F4EFE3" stroke="#1E1A17" stroke-width="1.5"/>
<circle cx="243.8" cy="180" r="6.9" fill="#F4EFE3" stroke="#1E1A17" stroke-width="1.5"/>
<circle cx="258.4" cy="180" r="6.9" fill="#2B2622" stroke="#1E1A17" stroke-width="1.5"/>
<circle cx="273" cy="180" r="6.9" fill="#F4EFE3" stroke="#1E1A17" stroke-width="1.5"/>
<circle cx="287.6" cy="180" r="6.9" fill="#2B2622" stroke="#1E1A17" stroke-width="1.5"/>
<circle cx="302.2" cy="180" r="6.9" fill="#F4EFE3" stroke="#1E1A17" stroke-width="1.5"/>
<circle cx="316.8" cy="180" r="6.9" fill="#F4EFE3" stroke="#1E1A17" stroke-width="1.5"/>
<circle cx="331.4" cy="180" r="6.9" fill="#F4EFE3" stroke="#1E1A17" stroke-width="1.5"/>
<circle cx="346" cy="180" r="6.9" fill="#F4EFE3" stroke="#1E1A17" stroke-width="1.5"/>
<circle cx="61.3" cy="192.6" r="6.9" fill="#F4EFE3" stroke="#1E1A17" stroke-width="1.5"/>
<circle cx="75.9" cy="192.6" r="6.9" fill="#2B2622" stroke="#1E1A17" stroke-width="1.5"/>
<circle cx="90.5" cy="192.6" r="6.9" fill="#F4EFE3" stroke="#1E1A17" stroke-width="1.5"/>
<circle cx="105.1" cy="192.6" r="6.9" fill="#F4EFE3" stroke="#1E1A17" stroke-width="1.5"/>
<circle cx="119.7" cy="192.6" r="6.9" fill="#F4EFE3" stroke="#1E1A17" stroke-width="1.5"/>
<circle cx="134.3" cy="192.6" r="6.9" fill="#2B2622" stroke="#1E1A17" stroke-width="1.5"/>
<circle cx="148.9" cy="192.6" r="6.9" fill="#F4EFE3" stroke="#1E1A17" stroke-width="1.5"/>
<circle cx="163.5" cy="192.6" r="6.9" fill="#B8322A" stroke="#1E1A17" stroke-width="1.5"/>
<circle cx="178.1" cy="192.6" r="6.9" fill="#F4EFE3" stroke="#1E1A17" stroke-width="1.5"/>
<circle cx="192.7" cy="192.6" r="6.9" fill="#2B2622" stroke="#1E1A17" stroke-width="1.5"/>
<circle cx="207.3" cy="192.6" r="6.9" fill="#F4EFE3" stroke="#1E1A17" stroke-width="1.5"/>
<circle cx="221.9" cy="192.6" r="6.9" fill="#F4EFE3" stroke="#1E1A17" stroke-width="1.5"/>
<circle cx="236.5" cy="192.6" r="6.9" fill="#F4EFE3" stroke="#1E1A17" stroke-width="1.5"/>
<circle cx="251.1" cy="192.6" r="6.9" fill="#2B2622" stroke="#1E1A17" stroke-width="1.5"/>
<circle cx="265.7" cy="192.6" r="6.9" fill="#F4EFE3" stroke="#1E1A17" stroke-width="1.5"/>
<circle cx="280.3" cy="192.6" r="6.9" fill="#B8322A" stroke="#1E1A17" stroke-width="1.5"/>
<circle cx="294.9" cy="192.6" r="6.9" fill="#F4EFE3" stroke="#1E1A17" stroke-width="1.5"/>
<circle cx="309.5" cy="192.6" r="6.9" fill="#2B2622" stroke="#1E1A17" stroke-width="1.5"/>
<circle cx="324.1" cy="192.6" r="6.9" fill="#F4EFE3" stroke="#1E1A17" stroke-width="1.5"/>
<circle cx="338.7" cy="192.6" r="6.9" fill="#F4EFE3" stroke="#1E1A17" stroke-width="1.5"/>
<circle cx="54" cy="205.2" r="6.9" fill="#B8322A" stroke="#1E1A17" stroke-width="1.5"/>
<circle cx="68.6" cy="205.2" r="6.9" fill="#F4EFE3" stroke="#1E1A17" stroke-width="1.5"/>
<circle cx="83.2" cy="205.2" r="6.9" fill="#2B2622" stroke="#1E1A17" stroke-width="1.5"/>
<circle cx="97.8" cy="205.2" r="6.9" fill="#F4EFE3" stroke="#1E1A17" stroke-width="1.5"/>
<circle cx="112.4" cy="205.2" r="6.9" fill="#F4EFE3" stroke="#1E1A17" stroke-width="1.5"/>
<circle cx="127" cy="205.2" r="6.9" fill="#2B2622" stroke="#1E1A17" stroke-width="1.5"/>
<circle cx="141.6" cy="205.2" r="6.9" fill="#F4EFE3" stroke="#1E1A17" stroke-width="1.5"/>
<circle cx="156.2" cy="205.2" r="6.9" fill="#B8322A" stroke="#1E1A17" stroke-width="1.5"/>
<circle cx="170.8" cy="205.2" r="6.9" fill="#B8322A" stroke="#1E1A17" stroke-width="1.5"/>
<circle cx="185.4" cy="205.2" r="6.9" fill="#F4EFE3" stroke="#1E1A17" stroke-width="1.5"/>
<circle cx="200" cy="205.2" r="6.9" fill="#2B2622" stroke="#1E1A17" stroke-width="1.5"/>
<circle cx="214.6" cy="205.2" r="6.9" fill="#F4EFE3" stroke="#1E1A17" stroke-width="1.5"/>
<circle cx="229.2" cy="205.2" r="6.9" fill="#F4EFE3" stroke="#1E1A17" stroke-width="1.5"/>
<circle cx="243.8" cy="205.2" r="6.9" fill="#2B2622" stroke="#1E1A17" stroke-width="1.5"/>
<circle cx="258.4" cy="205.2" r="6.9" fill="#F4EFE3" stroke="#1E1A17" stroke-width="1.5"/>
<circle cx="273" cy="205.2" r="6.9" fill="#B8322A" stroke="#1E1A17" stroke-width="1.5"/>
<circle cx="287.6" cy="205.2" r="6.9" fill="#B8322A" stroke="#1E1A17" stroke-width="1.5"/>
<circle cx="302.2" cy="205.2" r="6.9" fill="#F4EFE3" stroke="#1E1A17" stroke-width="1.5"/>
<circle cx="316.8" cy="205.2" r="6.9" fill="#2B2622" stroke="#1E1A17" stroke-width="1.5"/>
<circle cx="331.4" cy="205.2" r="6.9" fill="#F4EFE3" stroke="#1E1A17" stroke-width="1.5"/>
<circle cx="346" cy="205.2" r="6.9" fill="#F4EFE3" stroke="#1E1A17" stroke-width="1.5"/>
<circle cx="61.3" cy="217.8" r="6.9" fill="#F4EFE3" stroke="#1E1A17" stroke-width="1.5"/>
<circle cx="75.9" cy="217.8" r="6.9" fill="#2B2622" stroke="#1E1A17" stroke-width="1.5"/>
<circle cx="90.5" cy="217.8" r="6.9" fill="#F4EFE3" stroke="#1E1A17" stroke-width="1.5"/>
<circle cx="105.1" cy="217.8" r="6.9" fill="#F4EFE3" stroke="#1E1A17" stroke-width="1.5"/>
<circle cx="119.7" cy="217.8" r="6.9" fill="#F4EFE3" stroke="#1E1A17" stroke-width="1.5"/>
<circle cx="134.3" cy="217.8" r="6.9" fill="#2B2622" stroke="#1E1A17" stroke-width="1.5"/>
<circle cx="148.9" cy="217.8" r="6.9" fill="#F4EFE3" stroke="#1E1A17" stroke-width="1.5"/>
<circle cx="163.5" cy="217.8" r="6.9" fill="#F4EFE3" stroke="#1E1A17" stroke-width="1.5"/>
<circle cx="178.1" cy="217.8" r="6.9" fill="#2B2622" stroke="#1E1A17" stroke-width="1.5"/>
<circle cx="192.7" cy="217.8" r="6.9" fill="#F4EFE3" stroke="#1E1A17" stroke-width="1.5"/>
<circle cx="207.3" cy="217.8" r="6.9" fill="#F4EFE3" stroke="#1E1A17" stroke-width="1.5"/>
<circle cx="221.9" cy="217.8" r="6.9" fill="#F4EFE3" stroke="#1E1A17" stroke-width="1.5"/>
<circle cx="236.5" cy="217.8" r="6.9" fill="#F4EFE3" stroke="#1E1A17" stroke-width="1.5"/>
<circle cx="251.1" cy="217.8" r="6.9" fill="#2B2622" stroke="#1E1A17" stroke-width="1.5"/>
<circle cx="265.7" cy="217.8" r="6.9" fill="#F4EFE3" stroke="#1E1A17" stroke-width="1.5"/>
<circle cx="280.3" cy="217.8" r="6.9" fill="#F4EFE3" stroke="#1E1A17" stroke-width="1.5"/>
<circle cx="294.9" cy="217.8" r="6.9" fill="#2B2622" stroke="#1E1A17" stroke-width="1.5"/>
<circle cx="309.5" cy="217.8" r="6.9" fill="#F4EFE3" stroke="#1E1A17" stroke-width="1.5"/>
<circle cx="324.1" cy="217.8" r="6.9" fill="#F4EFE3" stroke="#1E1A17" stroke-width="1.5"/>
<circle cx="338.7" cy="217.8" r="6.9" fill="#F4EFE3" stroke="#1E1A17" stroke-width="1.5"/>
<circle cx="54" cy="230.4" r="6.9" fill="#2B2622" stroke="#1E1A17" stroke-width="1.5"/>
<circle cx="68.6" cy="230.4" r="6.9" fill="#F4EFE3" stroke="#1E1A17" stroke-width="1.5"/>
<circle cx="83.2" cy="230.4" r="6.9" fill="#F4EFE3" stroke="#1E1A17" stroke-width="1.5"/>
<circle cx="97.8" cy="230.4" r="6.9" fill="#F4EFE3" stroke="#1E1A17" stroke-width="1.5"/>
<circle cx="112.4" cy="230.4" r="6.9" fill="#F4EFE3" stroke="#1E1A17" stroke-width="1.5"/>
<circle cx="127" cy="230.4" r="6.9" fill="#F4EFE3" stroke="#1E1A17" stroke-width="1.5"/>
<circle cx="141.6" cy="230.4" r="6.9" fill="#F4EFE3" stroke="#1E1A17" stroke-width="1.5"/>
<circle cx="156.2" cy="230.4" r="6.9" fill="#2B2622" stroke="#1E1A17" stroke-width="1.5"/>
<circle cx="170.8" cy="230.4" r="6.9" fill="#2B2622" stroke="#1E1A17" stroke-width="1.5"/>
<circle cx="185.4" cy="230.4" r="6.9" fill="#F4EFE3" stroke="#1E1A17" stroke-width="1.5"/>
<circle cx="200" cy="230.4" r="6.9" fill="#F4EFE3" stroke="#1E1A17" stroke-width="1.5"/>
<circle cx="214.6" cy="230.4" r="6.9" fill="#F4EFE3" stroke="#1E1A17" stroke-width="1.5"/>
<circle cx="229.2" cy="230.4" r="6.9" fill="#F4EFE3" stroke="#1E1A17" stroke-width="1.5"/>
<circle cx="243.8" cy="230.4" r="6.9" fill="#F4EFE3" stroke="#1E1A17" stroke-width="1.5"/>
<circle cx="258.4" cy="230.4" r="6.9" fill="#F4EFE3" stroke="#1E1A17" stroke-width="1.5"/>
<circle cx="273" cy="230.4" r="6.9" fill="#2B2622" stroke="#1E1A17" stroke-width="1.5"/>
<circle cx="287.6" cy="230.4" r="6.9" fill="#2B2622" stroke="#1E1A17" stroke-width="1.5"/>
<circle cx="302.2" cy="230.4" r="6.9" fill="#F4EFE3" stroke="#1E1A17" stroke-width="1.5"/>
<circle cx="316.8" cy="230.4" r="6.9" fill="#F4EFE3" stroke="#1E1A17" stroke-width="1.5"/>
<circle cx="331.4" cy="230.4" r="6.9" fill="#F4EFE3" stroke="#1E1A17" stroke-width="1.5"/>
<circle cx="346" cy="230.4" r="6.9" fill="#F4EFE3" stroke="#1E1A17" stroke-width="1.5"/>
<circle cx="61.3" cy="243" r="6.9" fill="#F4EFE3" stroke="#1E1A17" stroke-width="1.5"/>
<circle cx="75.9" cy="243" r="6.9" fill="#F4EFE3" stroke="#1E1A17" stroke-width="1.5"/>
<circle cx="90.5" cy="243" r="6.9" fill="#F4EFE3" stroke="#1E1A17" stroke-width="1.5"/>
<circle cx="105.1" cy="243" r="6.9" fill="#F4EFE3" stroke="#1E1A17" stroke-width="1.5"/>
<circle cx="119.7" cy="243" r="6.9" fill="#F4EFE3" stroke="#1E1A17" stroke-width="1.5"/>
<circle cx="134.3" cy="243" r="6.9" fill="#F4EFE3" stroke="#1E1A17" stroke-width="1.5"/>
<circle cx="148.9" cy="243" r="6.9" fill="#F4EFE3" stroke="#1E1A17" stroke-width="1.5"/>
<circle cx="163.5" cy="243" r="6.9" fill="#F4EFE3" stroke="#1E1A17" stroke-width="1.5"/>
<circle cx="178.1" cy="243" r="6.9" fill="#F4EFE3" stroke="#1E1A17" stroke-width="1.5"/>
<circle cx="192.7" cy="243" r="6.9" fill="#F4EFE3" stroke="#1E1A17" stroke-width="1.5"/>
<circle cx="207.3" cy="243" r="6.9" fill="#F4EFE3" stroke="#1E1A17" stroke-width="1.5"/>
<circle cx="221.9" cy="243" r="6.9" fill="#F4EFE3" stroke="#1E1A17" stroke-width="1.5"/>
<circle cx="236.5" cy="243" r="6.9" fill="#F4EFE3" stroke="#1E1A17" stroke-width="1.5"/>
<circle cx="251.1" cy="243" r="6.9" fill="#F4EFE3" stroke="#1E1A17" stroke-width="1.5"/>
<circle cx="265.7" cy="243" r="6.9" fill="#F4EFE3" stroke="#1E1A17" stroke-width="1.5"/>
<circle cx="280.3" cy="243" r="6.9" fill="#F4EFE3" stroke="#1E1A17" stroke-width="1.5"/>
<circle cx="294.9" cy="243" r="6.9" fill="#F4EFE3" stroke="#1E1A17" stroke-width="1.5"/>
<circle cx="309.5" cy="243" r="6.9" fill="#F4EFE3" stroke="#1E1A17" stroke-width="1.5"/>
<circle cx="324.1" cy="243" r="6.9" fill="#F4EFE3" stroke="#1E1A17" stroke-width="1.5"/>
<circle cx="338.7" cy="243" r="6.9" fill="#F4EFE3" stroke="#1E1A17" stroke-width="1.5"/>
<circle cx="54" cy="255.6" r="6.9" fill="#F4EFE3" stroke="#1E1A17" stroke-width="1.5"/>
<circle cx="68.6" cy="255.6" r="6.9" fill="#F4EFE3" stroke="#1E1A17" stroke-width="1.5"/>
<circle cx="83.2" cy="255.6" r="6.9" fill="#F4EFE3" stroke="#1E1A17" stroke-width="1.5"/>
<circle cx="97.8" cy="255.6" r="6.9" fill="#F4EFE3" stroke="#1E1A17" stroke-width="1.5"/>
<circle cx="112.4" cy="255.6" r="6.9" fill="#F4EFE3" stroke="#1E1A17" stroke-width="1.5"/>
<circle cx="127" cy="255.6" r="6.9" fill="#F4EFE3" stroke="#1E1A17" stroke-width="1.5"/>
<circle cx="141.6" cy="255.6" r="6.9" fill="#F4EFE3" stroke="#1E1A17" stroke-width="1.5"/>
<circle cx="156.2" cy="255.6" r="6.9" fill="#F4EFE3" stroke="#1E1A17" stroke-width="1.5"/>
<circle cx="170.8" cy="255.6" r="6.9" fill="#F4EFE3" stroke="#1E1A17" stroke-width="1.5"/>
<circle cx="185.4" cy="255.6" r="6.9" fill="#F4EFE3" stroke="#1E1A17" stroke-width="1.5"/>
<circle cx="200" cy="255.6" r="6.9" fill="#F4EFE3" stroke="#1E1A17" stroke-width="1.5"/>
<circle cx="214.6" cy="255.6" r="6.9" fill="#F4EFE3" stroke="#1E1A17" stroke-width="1.5"/>
<circle cx="229.2" cy="255.6" r="6.9" fill="#F4EFE3" stroke="#1E1A17" stroke-width="1.5"/>
<circle cx="243.8" cy="255.6" r="6.9" fill="#F4EFE3" stroke="#1E1A17" stroke-width="1.5"/>
<circle cx="258.4" cy="255.6" r="6.9" fill="#F4EFE3" stroke="#1E1A17" stroke-width="1.5"/>
<circle cx="273" cy="255.6" r="6.9" fill="#F4EFE3" stroke="#1E1A17" stroke-width="1.5"/>
<circle cx="287.6" cy="255.6" r="6.9" fill="#F4EFE3" stroke="#1E1A17" stroke-width="1.5"/>
<circle cx="302.2" cy="255.6" r="6.9" fill="#F4EFE3" stroke="#1E1A17" stroke-width="1.5"/>
<circle cx="316.8" cy="255.6" r="6.9" fill="#F4EFE3" stroke="#1E1A17" stroke-width="1.5"/>
<circle cx="331.4" cy="255.6" r="6.9" fill="#F4EFE3" stroke="#1E1A17" stroke-width="1.5"/>
<circle cx="346" cy="255.6" r="6.9" fill="#F4EFE3" stroke="#1E1A17" stroke-width="1.5"/>
<circle cx="61.3" cy="268.2" r="6.9" fill="#F4EFE3" stroke="#1E1A17" stroke-width="1.5"/>
<circle cx="75.9" cy="268.2" r="6.9" fill="#2B2622" stroke="#1E1A17" stroke-width="1.5"/>
<circle cx="90.5" cy="268.2" r="6.9" fill="#2B2622" stroke="#1E1A17" stroke-width="1.5"/>
<circle cx="105.1" cy="268.2" r="6.9" fill="#2B2622" stroke="#1E1A17" stroke-width="1.5"/>
<circle cx="119.7" cy="268.2" r="6.9" fill="#2B2622" stroke="#1E1A17" stroke-width="1.5"/>
<circle cx="134.3" cy="268.2" r="6.9" fill="#2B2622" stroke="#1E1A17" stroke-width="1.5"/>
<circle cx="148.9" cy="268.2" r="6.9" fill="#F4EFE3" stroke="#1E1A17" stroke-width="1.5"/>
<circle cx="163.5" cy="268.2" r="6.9" fill="#F4EFE3" stroke="#1E1A17" stroke-width="1.5"/>
<circle cx="178.1" cy="268.2" r="6.9" fill="#F4EFE3" stroke="#1E1A17" stroke-width="1.5"/>
<circle cx="192.7" cy="268.2" r="6.9" fill="#2B2622" stroke="#1E1A17" stroke-width="1.5"/>
<circle cx="207.3" cy="268.2" r="6.9" fill="#2B2622" stroke="#1E1A17" stroke-width="1.5"/>
<circle cx="221.9" cy="268.2" r="6.9" fill="#2B2622" stroke="#1E1A17" stroke-width="1.5"/>
<circle cx="236.5" cy="268.2" r="6.9" fill="#2B2622" stroke="#1E1A17" stroke-width="1.5"/>
<circle cx="251.1" cy="268.2" r="6.9" fill="#2B2622" stroke="#1E1A17" stroke-width="1.5"/>
<circle cx="265.7" cy="268.2" r="6.9" fill="#F4EFE3" stroke="#1E1A17" stroke-width="1.5"/>
<circle cx="280.3" cy="268.2" r="6.9" fill="#F4EFE3" stroke="#1E1A17" stroke-width="1.5"/>
<circle cx="294.9" cy="268.2" r="6.9" fill="#F4EFE3" stroke="#1E1A17" stroke-width="1.5"/>
<circle cx="309.5" cy="268.2" r="6.9" fill="#2B2622" stroke="#1E1A17" stroke-width="1.5"/>
<circle cx="324.1" cy="268.2" r="6.9" fill="#2B2622" stroke="#1E1A17" stroke-width="1.5"/>
<circle cx="338.7" cy="268.2" r="6.9" fill="#2B2622" stroke="#1E1A17" stroke-width="1.5"/>
<circle cx="54" cy="280.8" r="6.9" fill="#F4EFE3" stroke="#1E1A17" stroke-width="1.5"/>
<circle cx="68.6" cy="280.8" r="6.9" fill="#F4EFE3" stroke="#1E1A17" stroke-width="1.5"/>
<circle cx="83.2" cy="280.8" r="6.9" fill="#F4EFE3" stroke="#1E1A17" stroke-width="1.5"/>
<circle cx="97.8" cy="280.8" r="6.9" fill="#2B2622" stroke="#1E1A17" stroke-width="1.5"/>
<circle cx="112.4" cy="280.8" r="6.9" fill="#2B2622" stroke="#1E1A17" stroke-width="1.5"/>
<circle cx="127" cy="280.8" r="6.9" fill="#F4EFE3" stroke="#1E1A17" stroke-width="1.5"/>
<circle cx="141.6" cy="280.8" r="6.9" fill="#F4EFE3" stroke="#1E1A17" stroke-width="1.5"/>
<circle cx="156.2" cy="280.8" r="6.9" fill="#F4EFE3" stroke="#1E1A17" stroke-width="1.5"/>
<circle cx="170.8" cy="280.8" r="6.9" fill="#F4EFE3" stroke="#1E1A17" stroke-width="1.5"/>
<circle cx="185.4" cy="280.8" r="6.9" fill="#F4EFE3" stroke="#1E1A17" stroke-width="1.5"/>
<circle cx="200" cy="280.8" r="6.9" fill="#F4EFE3" stroke="#1E1A17" stroke-width="1.5"/>
<circle cx="214.6" cy="280.8" r="6.9" fill="#2B2622" stroke="#1E1A17" stroke-width="1.5"/>
<circle cx="229.2" cy="280.8" r="6.9" fill="#2B2622" stroke="#1E1A17" stroke-width="1.5"/>
<circle cx="243.8" cy="280.8" r="6.9" fill="#F4EFE3" stroke="#1E1A17" stroke-width="1.5"/>
<circle cx="258.4" cy="280.8" r="6.9" fill="#F4EFE3" stroke="#1E1A17" stroke-width="1.5"/>
<circle cx="273" cy="280.8" r="6.9" fill="#F4EFE3" stroke="#1E1A17" stroke-width="1.5"/>
<circle cx="287.6" cy="280.8" r="6.9" fill="#F4EFE3" stroke="#1E1A17" stroke-width="1.5"/>
<circle cx="302.2" cy="280.8" r="6.9" fill="#F4EFE3" stroke="#1E1A17" stroke-width="1.5"/>
<circle cx="316.8" cy="280.8" r="6.9" fill="#F4EFE3" stroke="#1E1A17" stroke-width="1.5"/>
<circle cx="331.4" cy="280.8" r="6.9" fill="#2B2622" stroke="#1E1A17" stroke-width="1.5"/>
<circle cx="346" cy="280.8" r="6.9" fill="#2B2622" stroke="#1E1A17" stroke-width="1.5"/>
<circle cx="61.3" cy="293.4" r="6.9" fill="#B8322A" stroke="#1E1A17" stroke-width="1.5"/>
<circle cx="75.9" cy="293.4" r="6.9" fill="#F4EFE3" stroke="#1E1A17" stroke-width="1.5"/>
<circle cx="90.5" cy="293.4" r="6.9" fill="#F4EFE3" stroke="#1E1A17" stroke-width="1.5"/>
<circle cx="105.1" cy="293.4" r="6.9" fill="#F4EFE3" stroke="#1E1A17" stroke-width="1.5"/>
<circle cx="119.7" cy="293.4" r="6.9" fill="#F4EFE3" stroke="#1E1A17" stroke-width="1.5"/>
<circle cx="134.3" cy="293.4" r="6.9" fill="#F4EFE3" stroke="#1E1A17" stroke-width="1.5"/>
<circle cx="148.9" cy="293.4" r="6.9" fill="#B8322A" stroke="#1E1A17" stroke-width="1.5"/>
<circle cx="163.5" cy="293.4" r="6.9" fill="#B8322A" stroke="#1E1A17" stroke-width="1.5"/>
<circle cx="178.1" cy="293.4" r="6.9" fill="#B8322A" stroke="#1E1A17" stroke-width="1.5"/>
<circle cx="192.7" cy="293.4" r="6.9" fill="#F4EFE3" stroke="#1E1A17" stroke-width="1.5"/>
<circle cx="207.3" cy="293.4" r="6.9" fill="#F4EFE3" stroke="#1E1A17" stroke-width="1.5"/>
<circle cx="221.9" cy="293.4" r="6.9" fill="#F4EFE3" stroke="#1E1A17" stroke-width="1.5"/>
<circle cx="236.5" cy="293.4" r="6.9" fill="#F4EFE3" stroke="#1E1A17" stroke-width="1.5"/>
<circle cx="251.1" cy="293.4" r="6.9" fill="#F4EFE3" stroke="#1E1A17" stroke-width="1.5"/>
<circle cx="265.7" cy="293.4" r="6.9" fill="#B8322A" stroke="#1E1A17" stroke-width="1.5"/>
<circle cx="280.3" cy="293.4" r="6.9" fill="#B8322A" stroke="#1E1A17" stroke-width="1.5"/>
<circle cx="294.9" cy="293.4" r="6.9" fill="#B8322A" stroke="#1E1A17" stroke-width="1.5"/>
<circle cx="309.5" cy="293.4" r="6.9" fill="#F4EFE3" stroke="#1E1A17" stroke-width="1.5"/>
<circle cx="324.1" cy="293.4" r="6.9" fill="#F4EFE3" stroke="#1E1A17" stroke-width="1.5"/>
<circle cx="338.7" cy="293.4" r="6.9" fill="#F4EFE3" stroke="#1E1A17" stroke-width="1.5"/>
<circle cx="54" cy="306" r="6.9" fill="#B8322A" stroke="#1E1A17" stroke-width="1.5"/>
<circle cx="68.6" cy="306" r="6.9" fill="#B8322A" stroke="#1E1A17" stroke-width="1.5"/>
<circle cx="83.2" cy="306" r="6.9" fill="#B8322A" stroke="#1E1A17" stroke-width="1.5"/>
<circle cx="97.8" cy="306" r="6.9" fill="#F4EFE3" stroke="#1E1A17" stroke-width="1.5"/>
<circle cx="112.4" cy="306" r="6.9" fill="#F4EFE3" stroke="#1E1A17" stroke-width="1.5"/>
<circle cx="127" cy="306" r="6.9" fill="#B8322A" stroke="#1E1A17" stroke-width="1.5"/>
<circle cx="141.6" cy="306" r="6.9" fill="#B8322A" stroke="#1E1A17" stroke-width="1.5"/>
<circle cx="156.2" cy="306" r="6.9" fill="#B8322A" stroke="#1E1A17" stroke-width="1.5"/>
<circle cx="170.8" cy="306" r="6.9" fill="#B8322A" stroke="#1E1A17" stroke-width="1.5"/>
<circle cx="185.4" cy="306" r="6.9" fill="#B8322A" stroke="#1E1A17" stroke-width="1.5"/>
<circle cx="200" cy="306" r="6.9" fill="#B8322A" stroke="#1E1A17" stroke-width="1.5"/>
<circle cx="214.6" cy="306" r="6.9" fill="#F4EFE3" stroke="#1E1A17" stroke-width="1.5"/>
<circle cx="229.2" cy="306" r="6.9" fill="#F4EFE3" stroke="#1E1A17" stroke-width="1.5"/>
<circle cx="243.8" cy="306" r="6.9" fill="#B8322A" stroke="#1E1A17" stroke-width="1.5"/>
<circle cx="258.4" cy="306" r="6.9" fill="#B8322A" stroke="#1E1A17" stroke-width="1.5"/>
<circle cx="273" cy="306" r="6.9" fill="#B8322A" stroke="#1E1A17" stroke-width="1.5"/>
<circle cx="287.6" cy="306" r="6.9" fill="#B8322A" stroke="#1E1A17" stroke-width="1.5"/>
<circle cx="302.2" cy="306" r="6.9" fill="#B8322A" stroke="#1E1A17" stroke-width="1.5"/>
<circle cx="316.8" cy="306" r="6.9" fill="#B8322A" stroke="#1E1A17" stroke-width="1.5"/>
<circle cx="331.4" cy="306" r="6.9" fill="#F4EFE3" stroke="#1E1A17" stroke-width="1.5"/>
<circle cx="346" cy="306" r="6.9" fill="#F4EFE3" stroke="#1E1A17" stroke-width="1.5"/>
<circle cx="61.3" cy="318.6" r="6.9" fill="#F4EFE3" stroke="#1E1A17" stroke-width="1.5"/>
<circle cx="75.9" cy="318.6" r="6.9" fill="#B8322A" stroke="#1E1A17" stroke-width="1.5"/>
<circle cx="90.5" cy="318.6" r="6.9" fill="#B8322A" stroke="#1E1A17" stroke-width="1.5"/>
<circle cx="105.1" cy="318.6" r="6.9" fill="#B8322A" stroke="#1E1A17" stroke-width="1.5"/>
<circle cx="119.7" cy="318.6" r="6.9" fill="#B8322A" stroke="#1E1A17" stroke-width="1.5"/>
<circle cx="134.3" cy="318.6" r="6.9" fill="#B8322A" stroke="#1E1A17" stroke-width="1.5"/>
<circle cx="148.9" cy="318.6" r="6.9" fill="#F4EFE3" stroke="#1E1A17" stroke-width="1.5"/>
<circle cx="163.5" cy="318.6" r="6.9" fill="#F4EFE3" stroke="#1E1A17" stroke-width="1.5"/>
<circle cx="178.1" cy="318.6" r="6.9" fill="#F4EFE3" stroke="#1E1A17" stroke-width="1.5"/>
<circle cx="192.7" cy="318.6" r="6.9" fill="#B8322A" stroke="#1E1A17" stroke-width="1.5"/>
<circle cx="207.3" cy="318.6" r="6.9" fill="#B8322A" stroke="#1E1A17" stroke-width="1.5"/>
<circle cx="221.9" cy="318.6" r="6.9" fill="#B8322A" stroke="#1E1A17" stroke-width="1.5"/>
<circle cx="236.5" cy="318.6" r="6.9" fill="#B8322A" stroke="#1E1A17" stroke-width="1.5"/>
<circle cx="251.1" cy="318.6" r="6.9" fill="#B8322A" stroke="#1E1A17" stroke-width="1.5"/>
<circle cx="265.7" cy="318.6" r="6.9" fill="#F4EFE3" stroke="#1E1A17" stroke-width="1.5"/>
<circle cx="280.3" cy="318.6" r="6.9" fill="#F4EFE3" stroke="#1E1A17" stroke-width="1.5"/>
<circle cx="294.9" cy="318.6" r="6.9" fill="#F4EFE3" stroke="#1E1A17" stroke-width="1.5"/>
<circle cx="309.5" cy="318.6" r="6.9" fill="#B8322A" stroke="#1E1A17" stroke-width="1.5"/>
<circle cx="324.1" cy="318.6" r="6.9" fill="#B8322A" stroke="#1E1A17" stroke-width="1.5"/>
<circle cx="338.7" cy="318.6" r="6.9" fill="#B8322A" stroke="#1E1A17" stroke-width="1.5"/>
<circle cx="54" cy="331.2" r="6.9" fill="#F4EFE3" stroke="#1E1A17" stroke-width="1.5"/>
<circle cx="68.6" cy="331.2" r="6.9" fill="#F4EFE3" stroke="#1E1A17" stroke-width="1.5"/>
<circle cx="83.2" cy="331.2" r="6.9" fill="#F4EFE3" stroke="#1E1A17" stroke-width="1.5"/>
<circle cx="97.8" cy="331.2" r="6.9" fill="#B8322A" stroke="#1E1A17" stroke-width="1.5"/>
<circle cx="112.4" cy="331.2" r="6.9" fill="#B8322A" stroke="#1E1A17" stroke-width="1.5"/>
<circle cx="127" cy="331.2" r="6.9" fill="#F4EFE3" stroke="#1E1A17" stroke-width="1.5"/>
<circle cx="141.6" cy="331.2" r="6.9" fill="#F4EFE3" stroke="#1E1A17" stroke-width="1.5"/>
<circle cx="156.2" cy="331.2" r="6.9" fill="#F4EFE3" stroke="#1E1A17" stroke-width="1.5"/>
<circle cx="170.8" cy="331.2" r="6.9" fill="#F4EFE3" stroke="#1E1A17" stroke-width="1.5"/>
<circle cx="185.4" cy="331.2" r="6.9" fill="#F4EFE3" stroke="#1E1A17" stroke-width="1.5"/>
<circle cx="200" cy="331.2" r="6.9" fill="#F4EFE3" stroke="#1E1A17" stroke-width="1.5"/>
<circle cx="214.6" cy="331.2" r="6.9" fill="#B8322A" stroke="#1E1A17" stroke-width="1.5"/>
<circle cx="229.2" cy="331.2" r="6.9" fill="#B8322A" stroke="#1E1A17" stroke-width="1.5"/>
<circle cx="243.8" cy="331.2" r="6.9" fill="#F4EFE3" stroke="#1E1A17" stroke-width="1.5"/>
<circle cx="258.4" cy="331.2" r="6.9" fill="#F4EFE3" stroke="#1E1A17" stroke-width="1.5"/>
<circle cx="273" cy="331.2" r="6.9" fill="#F4EFE3" stroke="#1E1A17" stroke-width="1.5"/>
<circle cx="287.6" cy="331.2" r="6.9" fill="#F4EFE3" stroke="#1E1A17" stroke-width="1.5"/>
<circle cx="302.2" cy="331.2" r="6.9" fill="#F4EFE3" stroke="#1E1A17" stroke-width="1.5"/>
<circle cx="316.8" cy="331.2" r="6.9" fill="#F4EFE3" stroke="#1E1A17" stroke-width="1.5"/>
<circle cx="331.4" cy="331.2" r="6.9" fill="#B8322A" stroke="#1E1A17" stroke-width="1.5"/>
<circle cx="346" cy="331.2" r="6.9" fill="#B8322A" stroke="#1E1A17" stroke-width="1.5"/>
<circle cx="61.3" cy="343.8" r="6.9" fill="#2B2622" stroke="#1E1A17" stroke-width="1.5"/>
<circle cx="75.9" cy="343.8" r="6.9" fill="#F4EFE3" stroke="#1E1A17" stroke-width="1.5"/>
<circle cx="90.5" cy="343.8" r="6.9" fill="#F4EFE3" stroke="#1E1A17" stroke-width="1.5"/>
<circle cx="105.1" cy="343.8" r="6.9" fill="#F4EFE3" stroke="#1E1A17" stroke-width="1.5"/>
<circle cx="119.7" cy="343.8" r="6.9" fill="#F4EFE3" stroke="#1E1A17" stroke-width="1.5"/>
<circle cx="134.3" cy="343.8" r="6.9" fill="#F4EFE3" stroke="#1E1A17" stroke-width="1.5"/>
<circle cx="148.9" cy="343.8" r="6.9" fill="#2B2622" stroke="#1E1A17" stroke-width="1.5"/>
<circle cx="163.5" cy="343.8" r="6.9" fill="#2B2622" stroke="#1E1A17" stroke-width="1.5"/>
<circle cx="178.1" cy="343.8" r="6.9" fill="#2B2622" stroke="#1E1A17" stroke-width="1.5"/>
<circle cx="192.7" cy="343.8" r="6.9" fill="#F4EFE3" stroke="#1E1A17" stroke-width="1.5"/>
<circle cx="207.3" cy="343.8" r="6.9" fill="#F4EFE3" stroke="#1E1A17" stroke-width="1.5"/>
<circle cx="221.9" cy="343.8" r="6.9" fill="#F4EFE3" stroke="#1E1A17" stroke-width="1.5"/>
<circle cx="236.5" cy="343.8" r="6.9" fill="#F4EFE3" stroke="#1E1A17" stroke-width="1.5"/>
<circle cx="251.1" cy="343.8" r="6.9" fill="#F4EFE3" stroke="#1E1A17" stroke-width="1.5"/>
<circle cx="265.7" cy="343.8" r="6.9" fill="#2B2622" stroke="#1E1A17" stroke-width="1.5"/>
<circle cx="280.3" cy="343.8" r="6.9" fill="#2B2622" stroke="#1E1A17" stroke-width="1.5"/>
<circle cx="294.9" cy="343.8" r="6.9" fill="#2B2622" stroke="#1E1A17" stroke-width="1.5"/>
<circle cx="309.5" cy="343.8" r="6.9" fill="#F4EFE3" stroke="#1E1A17" stroke-width="1.5"/>
<circle cx="324.1" cy="343.8" r="6.9" fill="#F4EFE3" stroke="#1E1A17" stroke-width="1.5"/>
<circle cx="338.7" cy="343.8" r="6.9" fill="#F4EFE3" stroke="#1E1A17" stroke-width="1.5"/>
</g>
</svg>
