<!--
  Goddess Temple Discovery vector art
  Title: Expedition deck
  Subject: Card motif: a 1930s cork pith helmet resting on a rolled excavation plan with its blue survey lines
  Sources consulted: ART_BIBLE palette and style; images/Schwarzenbach_Ausgrabungen_112.jpg
  Author: Claude (Opus) for Jeremy Ellis, 2026
  License: Apache License 2.0 (see the LICENSE file at the repository root)
-->
<svg xmlns="http://www.w3.org/2000/svg" viewBox="0 0 400 400" width="400" height="400" stroke-linecap="round" stroke-linejoin="round">
<g id="rolled-plan"><path d="M 64,296 L 300,226 L 330,282 L 94,352 Z" fill="#EDE6D6" stroke="#1E1A17" stroke-width="3"/><ellipse cx="316" cy="252" rx="18" ry="32" fill="#EDE6D6" stroke="#1E1A17" stroke-width="3" transform="rotate(-16 316 252)"/><ellipse cx="316" cy="252" rx="9" ry="18" fill="#EDE6D6" stroke="#1E1A17" stroke-width="2" transform="rotate(-16 316 252)"/><ellipse cx="316" cy="252" rx="3" ry="7" fill="#1E1A17" transform="rotate(-16 316 252)"/><ellipse cx="79" cy="324" rx="18" ry="32" fill="#EDE6D6" stroke="#1E1A17" stroke-width="3" transform="rotate(-16 79 324)"/><path d="M 104,302 L 132,294 L 140,310 L 112,318 Z" fill="none" stroke="#5B7BC4" stroke-width="2"/><path d="M 154,287 L 182,279 L 190,295 L 162,303 Z" fill="none" stroke="#5B7BC4" stroke-width="2"/><path d="M 204,272 L 232,264 L 240,280 L 212,288 Z" fill="none" stroke="#5B7BC4" stroke-width="2"/><path d="M 254,257 L 282,249 L 290,265 L 262,273 Z" fill="none" stroke="#5B7BC4" stroke-width="2"/></g>
<g id="pith-helmet"><path d="M 44,236 C 70,214 330,214 356,236 C 340,252 280,258 200,258 C 120,258 60,252 44,236 Z" fill="#C8955A" stroke="#1E1A17" stroke-width="3"/><path d="M 92,224 C 92,140 140,96 200,96 C 260,96 308,140 308,224 C 270,236 130,236 92,224 Z" fill="#E8C597" stroke="#1E1A17" stroke-width="3"/><path d="M 240,104 C 284,124 308,170 308,224 C 296,228 282,230 268,232 C 270,180 262,140 240,104 Z" fill="#C8955A"/><path d="M 92,224 C 92,140 140,96 200,96 C 260,96 308,140 308,224" fill="none" stroke="#1E1A17" stroke-width="3"/><path d="M 94,206 C 140,218 260,218 306,206 L 307,224 C 260,236 140,236 93,224 Z" fill="#9C6B3C" stroke="#1E1A17" stroke-width="3"/><ellipse cx="200" cy="98" rx="14" ry="7" fill="#E8C597" stroke="#1E1A17" stroke-width="2.5"/><path d="M 182.5,104 C 145.0,130 105.0,170 100,206" fill="none" stroke="#1E1A17" stroke-width="1.5"/><path d="M 193.0,104 C 178.0,130 162.0,170 160,206" fill="none" stroke="#1E1A17" stroke-width="1.5"/><path d="M 207.0,104 C 222.0,130 238.0,170 240,206" fill="none" stroke="#1E1A17" stroke-width="1.5"/><path d="M 217.5,104 C 255.0,130 295.0,170 300,206" fill="none" stroke="#1E1A17" stroke-width="1.5"/></g>
</svg>
