<!--
  Goddess Temple Discovery vector art
  Title: Ubaid to Uruk transition
  Subject: Period icon: a raised platform of bound reed bundles with a woven mat and two looped reed posts, the earliest marsh shrines
  Sources consulted: ART_BIBLE palette and style; period sequence as given in the task brief; reed platform from general knowledge, no library file
  Author: Claude (Opus) for Jeremy Ellis, 2026
  License: Apache License 2.0 (see the LICENSE file at the repository root)
-->
<svg xmlns="http://www.w3.org/2000/svg" viewBox="0 0 400 400" width="400" height="400" stroke-linecap="round" stroke-linejoin="round">
<g id="tile"><rect x="24" y="24" width="352" height="352" rx="24" fill="#F4EFE3" stroke="#1E1A17" stroke-width="3"/><path d="M 24,90 L 24,48 Q 24,24 48,24 L 352,24 Q 376,24 376,48 L 376,90 Z" fill="#9C6B3C" stroke="#1E1A17" stroke-width="3"/><circle cx="56" cy="57" r="5" fill="#FFFFFF" stroke="#1E1A17" stroke-width="1.5"/><circle cx="80" cy="57" r="5" fill="#FFFFFF" stroke="#1E1A17" stroke-width="1.5"/><circle cx="104" cy="57" r="5" fill="#FFFFFF" stroke="#1E1A17" stroke-width="1.5"/><circle cx="128" cy="57" r="5" fill="#FFFFFF" stroke="#1E1A17" stroke-width="1.5"/><circle cx="152" cy="57" r="5" fill="#FFFFFF" stroke="#1E1A17" stroke-width="1.5"/><circle cx="176" cy="57" r="5" fill="#FFFFFF" stroke="#1E1A17" stroke-width="1.5"/><circle cx="200" cy="57" r="5" fill="#FFFFFF" stroke="#1E1A17" stroke-width="1.5"/><circle cx="224" cy="57" r="5" fill="#FFFFFF" stroke="#1E1A17" stroke-width="1.5"/><circle cx="248" cy="57" r="5" fill="#FFFFFF" stroke="#1E1A17" stroke-width="1.5"/><circle cx="272" cy="57" r="5" fill="#FFFFFF" stroke="#1E1A17" stroke-width="1.5"/><circle cx="296" cy="57" r="5" fill="#FFFFFF" stroke="#1E1A17" stroke-width="1.5"/><circle cx="320" cy="57" r="5" fill="#FFFFFF" stroke="#1E1A17" stroke-width="1.5"/><circle cx="344" cy="57" r="5" fill="#FFFFFF" stroke="#1E1A17" stroke-width="1.5"/></g>
<g id="platform"><polygon points="84.6,250 200,316.6 200,300.3 84.6,233.7" fill="#7A8A3A" stroke="#1E1A17" stroke-width="3"/><polygon points="315.4,250 200,316.6 200,300.3 315.4,233.7" fill="#4E5A22" stroke="#1E1A17" stroke-width="3"/><polygon points="200,167.1 315.4,233.7 200,300.3 84.6,233.7" fill="#E8C597" stroke="#1E1A17" stroke-width="3"/><ellipse cx="90.4" cy="245.2" rx="7.5" ry="9" fill="#7A8A3A" stroke="#1E1A17" stroke-width="1.5"/><circle cx="90.4" cy="245.2" r="2" fill="#4E5A22"/><ellipse cx="101.9" cy="251.9" rx="7.5" ry="9" fill="#7A8A3A" stroke="#1E1A17" stroke-width="1.5"/><circle cx="101.9" cy="251.9" r="2" fill="#4E5A22"/><ellipse cx="113.5" cy="258.5" rx="7.5" ry="9" fill="#7A8A3A" stroke="#1E1A17" stroke-width="1.5"/><circle cx="113.5" cy="258.5" r="2" fill="#4E5A22"/><ellipse cx="125" cy="265.2" rx="7.5" ry="9" fill="#7A8A3A" stroke="#1E1A17" stroke-width="1.5"/><circle cx="125" cy="265.2" r="2" fill="#4E5A22"/><ellipse cx="136.6" cy="271.8" rx="7.5" ry="9" fill="#7A8A3A" stroke="#1E1A17" stroke-width="1.5"/><circle cx="136.6" cy="271.8" r="2" fill="#4E5A22"/><ellipse cx="148.1" cy="278.5" rx="7.5" ry="9" fill="#7A8A3A" stroke="#1E1A17" stroke-width="1.5"/><circle cx="148.1" cy="278.5" r="2" fill="#4E5A22"/><ellipse cx="159.6" cy="285.2" rx="7.5" ry="9" fill="#7A8A3A" stroke="#1E1A17" stroke-width="1.5"/><circle cx="159.6" cy="285.2" r="2" fill="#4E5A22"/><ellipse cx="171.2" cy="291.8" rx="7.5" ry="9" fill="#7A8A3A" stroke="#1E1A17" stroke-width="1.5"/><circle cx="171.2" cy="291.8" r="2" fill="#4E5A22"/><ellipse cx="182.7" cy="298.5" rx="7.5" ry="9" fill="#7A8A3A" stroke="#1E1A17" stroke-width="1.5"/><circle cx="182.7" cy="298.5" r="2" fill="#4E5A22"/><ellipse cx="194.2" cy="305.1" rx="7.5" ry="9" fill="#7A8A3A" stroke="#1E1A17" stroke-width="1.5"/><circle cx="194.2" cy="305.1" r="2" fill="#4E5A22"/><line x1="286.5" y1="266.6" x2="286.5" y2="250.4" stroke="#E8C597" stroke-width="4"/><line x1="283.5" y1="268.1" x2="283.5" y2="251.9" stroke="#1E1A17" stroke-width="1.5"/><line x1="257.7" y1="283.3" x2="257.7" y2="267" stroke="#E8C597" stroke-width="4"/><line x1="254.7" y1="284.8" x2="254.7" y2="268.5" stroke="#1E1A17" stroke-width="1.5"/><line x1="228.8" y1="299.9" x2="228.8" y2="283.7" stroke="#E8C597" stroke-width="4"/><line x1="225.8" y1="301.4" x2="225.8" y2="285.2" stroke="#1E1A17" stroke-width="1.5"/><line x1="315.4" y1="244.6" x2="200" y2="311.2" stroke="#1E1A17" stroke-width="1.5"/><line x1="315.4" y1="239.1" x2="200" y2="305.7" stroke="#1E1A17" stroke-width="1.5"/><polygon points="97.5,233.7 200,292.9 200,276.6 97.5,217.4" fill="#7A8A3A" stroke="#1E1A17" stroke-width="3"/><polygon points="302.5,233.7 200,292.9 200,276.6 302.5,217.4" fill="#4E5A22" stroke="#1E1A17" stroke-width="3"/><polygon points="200,158.2 302.5,217.4 200,276.6 97.5,217.4" fill="#E8C597" stroke="#1E1A17" stroke-width="3"/><ellipse cx="103.2" cy="228.9" rx="7.5" ry="9" fill="#7A8A3A" stroke="#1E1A17" stroke-width="1.5"/><circle cx="103.2" cy="228.9" r="2" fill="#4E5A22"/><ellipse cx="116" cy="236.3" rx="7.5" ry="9" fill="#7A8A3A" stroke="#1E1A17" stroke-width="1.5"/><circle cx="116" cy="236.3" r="2" fill="#4E5A22"/><ellipse cx="128.9" cy="243.7" rx="7.5" ry="9" fill="#7A8A3A" stroke="#1E1A17" stroke-width="1.5"/><circle cx="128.9" cy="243.7" r="2" fill="#4E5A22"/><ellipse cx="141.7" cy="251.1" rx="7.5" ry="9" fill="#7A8A3A" stroke="#1E1A17" stroke-width="1.5"/><circle cx="141.7" cy="251.1" r="2" fill="#4E5A22"/><ellipse cx="154.5" cy="258.5" rx="7.5" ry="9" fill="#7A8A3A" stroke="#1E1A17" stroke-width="1.5"/><circle cx="154.5" cy="258.5" r="2" fill="#4E5A22"/><ellipse cx="167.3" cy="265.9" rx="7.5" ry="9" fill="#7A8A3A" stroke="#1E1A17" stroke-width="1.5"/><circle cx="167.3" cy="265.9" r="2" fill="#4E5A22"/><ellipse cx="180.1" cy="273.3" rx="7.5" ry="9" fill="#7A8A3A" stroke="#1E1A17" stroke-width="1.5"/><circle cx="180.1" cy="273.3" r="2" fill="#4E5A22"/><ellipse cx="193" cy="280.7" rx="7.5" ry="9" fill="#7A8A3A" stroke="#1E1A17" stroke-width="1.5"/><circle cx="193" cy="280.7" r="2" fill="#4E5A22"/><line x1="276.9" y1="248.5" x2="276.9" y2="232.2" stroke="#E8C597" stroke-width="4"/><line x1="273.9" y1="250" x2="273.9" y2="233.7" stroke="#1E1A17" stroke-width="1.5"/><line x1="251.3" y1="263.3" x2="251.3" y2="247" stroke="#E8C597" stroke-width="4"/><line x1="248.3" y1="264.8" x2="248.3" y2="248.5" stroke="#1E1A17" stroke-width="1.5"/><line x1="225.6" y1="278.1" x2="225.6" y2="261.8" stroke="#E8C597" stroke-width="4"/><line x1="222.6" y1="279.6" x2="222.6" y2="263.3" stroke="#1E1A17" stroke-width="1.5"/><line x1="302.5" y1="228.3" x2="200" y2="287.5" stroke="#1E1A17" stroke-width="1.5"/><line x1="302.5" y1="222.9" x2="200" y2="282.1" stroke="#1E1A17" stroke-width="1.5"/><polygon points="110.3,217.4 200,269.2 200,253 110.3,201.2" fill="#7A8A3A" stroke="#1E1A17" stroke-width="3"/><polygon points="289.7,217.4 200,269.2 200,253 289.7,201.2" fill="#4E5A22" stroke="#1E1A17" stroke-width="3"/><polygon points="200,149.4 289.7,201.2 200,253 110.3,201.2" fill="#E8C597" stroke="#1E1A17" stroke-width="3"/><ellipse cx="116" cy="212.6" rx="7.5" ry="9" fill="#7A8A3A" stroke="#1E1A17" stroke-width="1.5"/><circle cx="116" cy="212.6" r="2" fill="#4E5A22"/><ellipse cx="128.9" cy="220" rx="7.5" ry="9" fill="#7A8A3A" stroke="#1E1A17" stroke-width="1.5"/><circle cx="128.9" cy="220" r="2" fill="#4E5A22"/><ellipse cx="141.7" cy="227.4" rx="7.5" ry="9" fill="#7A8A3A" stroke="#1E1A17" stroke-width="1.5"/><circle cx="141.7" cy="227.4" r="2" fill="#4E5A22"/><ellipse cx="154.5" cy="234.8" rx="7.5" ry="9" fill="#7A8A3A" stroke="#1E1A17" stroke-width="1.5"/><circle cx="154.5" cy="234.8" r="2" fill="#4E5A22"/><ellipse cx="167.3" cy="242.2" rx="7.5" ry="9" fill="#7A8A3A" stroke="#1E1A17" stroke-width="1.5"/><circle cx="167.3" cy="242.2" r="2" fill="#4E5A22"/><ellipse cx="180.1" cy="249.6" rx="7.5" ry="9" fill="#7A8A3A" stroke="#1E1A17" stroke-width="1.5"/><circle cx="180.1" cy="249.6" r="2" fill="#4E5A22"/><ellipse cx="193" cy="257" rx="7.5" ry="9" fill="#7A8A3A" stroke="#1E1A17" stroke-width="1.5"/><circle cx="193" cy="257" r="2" fill="#4E5A22"/><line x1="267.3" y1="230.4" x2="267.3" y2="214.1" stroke="#E8C597" stroke-width="4"/><line x1="264.3" y1="231.9" x2="264.3" y2="215.6" stroke="#1E1A17" stroke-width="1.5"/><line x1="244.9" y1="243.3" x2="244.9" y2="227.1" stroke="#E8C597" stroke-width="4"/><line x1="241.9" y1="244.8" x2="241.9" y2="228.6" stroke="#1E1A17" stroke-width="1.5"/><line x1="222.4" y1="256.3" x2="222.4" y2="240" stroke="#E8C597" stroke-width="4"/><line x1="219.4" y1="257.8" x2="219.4" y2="241.5" stroke="#1E1A17" stroke-width="1.5"/><line x1="289.7" y1="212" x2="200" y2="263.8" stroke="#1E1A17" stroke-width="1.5"/><line x1="289.7" y1="206.6" x2="200" y2="258.4" stroke="#1E1A17" stroke-width="1.5"/><line x1="212.8" y1="156.8" x2="123.1" y2="208.6" stroke="#1E1A17" stroke-width="1.5"/><line x1="187.2" y1="156.8" x2="276.9" y2="208.6" stroke="#9C6B3C" stroke-width="1.5"/><line x1="225.6" y1="164.2" x2="135.9" y2="216" stroke="#1E1A17" stroke-width="1.5"/><line x1="174.4" y1="164.2" x2="264.1" y2="216" stroke="#9C6B3C" stroke-width="1.5"/><line x1="238.5" y1="171.6" x2="148.7" y2="223.4" stroke="#1E1A17" stroke-width="1.5"/><line x1="161.5" y1="171.6" x2="251.3" y2="223.4" stroke="#9C6B3C" stroke-width="1.5"/><line x1="251.3" y1="179" x2="161.5" y2="230.8" stroke="#1E1A17" stroke-width="1.5"/><line x1="148.7" y1="179" x2="238.5" y2="230.8" stroke="#9C6B3C" stroke-width="1.5"/><line x1="264.1" y1="186.4" x2="174.4" y2="238.2" stroke="#1E1A17" stroke-width="1.5"/><line x1="135.9" y1="186.4" x2="225.6" y2="238.2" stroke="#9C6B3C" stroke-width="1.5"/><line x1="276.9" y1="193.8" x2="187.2" y2="245.6" stroke="#1E1A17" stroke-width="1.5"/><line x1="123.1" y1="193.8" x2="212.8" y2="245.6" stroke="#9C6B3C" stroke-width="1.5"/><path d="M 136.3,197.5 L 138.3,135.5 L 146.3,135.5 L 148.3,197.5 Z" fill="#E8C597" stroke="#1E1A17" stroke-width="3"/><path d="M 126.3,123.5 A 16,16 0 1 1 158.3,123.5 A 16,16 0 1 1 126.3,123.5 Z M 135.3,123.5 A 7,7 0 1 0 149.3,123.5 A 7,7 0 1 0 135.3,123.5 Z" fill="#E8C597" fill-rule="evenodd" stroke="#1E1A17" stroke-width="3"/><rect x="135.3" y="172.5" width="14" height="6" fill="#7A8A3A" stroke="#1E1A17" stroke-width="1.5"/><rect x="135.3" y="148.5" width="14" height="6" fill="#7A8A3A" stroke="#1E1A17" stroke-width="1.5"/><path d="M 251.7,197.5 L 253.7,135.5 L 261.7,135.5 L 263.7,197.5 Z" fill="#E8C597" stroke="#1E1A17" stroke-width="3"/><path d="M 241.7,123.5 A 16,16 0 1 1 273.7,123.5 A 16,16 0 1 1 241.7,123.5 Z M 250.7,123.5 A 7,7 0 1 0 264.7,123.5 A 7,7 0 1 0 250.7,123.5 Z" fill="#E8C597" fill-rule="evenodd" stroke="#1E1A17" stroke-width="3"/><rect x="250.7" y="172.5" width="14" height="6" fill="#7A8A3A" stroke="#1E1A17" stroke-width="1.5"/><rect x="250.7" y="148.5" width="14" height="6" fill="#7A8A3A" stroke="#1E1A17" stroke-width="1.5"/></g>
</svg>
