<!--
  Goddess Temple Discovery vector art
  Title: Lapis Road Expedition emblem
  Subject: Team badge: a biconical lapis lazuli bead with pyrite flecks on a thread between gold spacers, for the long trade road from Badakhshan to Uruk
  Sources consulted: ART_BIBLE palette and style; lapis bead from general knowledge, no library file
  Author: Claude (Opus) for Jeremy Ellis, 2026
  License: Apache License 2.0 (see the LICENSE file at the repository root)
-->
<svg xmlns="http://www.w3.org/2000/svg" viewBox="0 0 400 400" width="400" height="400" stroke-linecap="round" stroke-linejoin="round">
<g id="badge"><circle cx="200" cy="200" r="182" fill="#A8761F" stroke="#1E1A17" stroke-width="3"/><circle cx="200" cy="200" r="160" fill="#B8322A" stroke="#1E1A17" stroke-width="3"/><circle cx="200" cy="29" r="4.5" fill="#FFFFFF" stroke="#1E1A17" stroke-width="1.5"/><circle cx="265.4" cy="42" r="4.5" fill="#FFFFFF" stroke="#1E1A17" stroke-width="1.5"/><circle cx="320.9" cy="79.1" r="4.5" fill="#FFFFFF" stroke="#1E1A17" stroke-width="1.5"/><circle cx="358" cy="134.6" r="4.5" fill="#FFFFFF" stroke="#1E1A17" stroke-width="1.5"/><circle cx="371" cy="200" r="4.5" fill="#FFFFFF" stroke="#1E1A17" stroke-width="1.5"/><circle cx="358" cy="265.4" r="4.5" fill="#FFFFFF" stroke="#1E1A17" stroke-width="1.5"/><circle cx="320.9" cy="320.9" r="4.5" fill="#FFFFFF" stroke="#1E1A17" stroke-width="1.5"/><circle cx="265.4" cy="358" r="4.5" fill="#FFFFFF" stroke="#1E1A17" stroke-width="1.5"/><circle cx="200" cy="371" r="4.5" fill="#FFFFFF" stroke="#1E1A17" stroke-width="1.5"/><circle cx="134.6" cy="358" r="4.5" fill="#FFFFFF" stroke="#1E1A17" stroke-width="1.5"/><circle cx="79.1" cy="320.9" r="4.5" fill="#FFFFFF" stroke="#1E1A17" stroke-width="1.5"/><circle cx="42" cy="265.4" r="4.5" fill="#FFFFFF" stroke="#1E1A17" stroke-width="1.5"/><circle cx="29" cy="200" r="4.5" fill="#FFFFFF" stroke="#1E1A17" stroke-width="1.5"/><circle cx="42" cy="134.6" r="4.5" fill="#FFFFFF" stroke="#1E1A17" stroke-width="1.5"/><circle cx="79.1" cy="79.1" r="4.5" fill="#FFFFFF" stroke="#1E1A17" stroke-width="1.5"/><circle cx="134.6" cy="42" r="4.5" fill="#FFFFFF" stroke="#1E1A17" stroke-width="1.5"/></g>
<g id="thread"><polyline points="66,136 74.9,150.4 83.9,163.9 92.8,176.3 101.7,187.8 110.7,198.2 119.6,207.7 128.5,216.1 137.5,223.6 146.4,230.1 155.3,235.6 164.3,240 173.2,243.5 182.1,246 191.1,247.5 200,248 208.9,247.5 217.9,246 226.8,243.5 235.7,240 244.7,235.6 253.6,230.1 262.5,223.6 271.5,216.1 280.4,207.7 289.3,198.2 298.3,187.8 307.2,176.3 316.1,163.9 325.1,150.4 334,136" fill="none" stroke="#1E1A17" stroke-width="9"/><polyline points="66,136 74.9,150.4 83.9,163.9 92.8,176.3 101.7,187.8 110.7,198.2 119.6,207.7 128.5,216.1 137.5,223.6 146.4,230.1 155.3,235.6 164.3,240 173.2,243.5 182.1,246 191.1,247.5 200,248 208.9,247.5 217.9,246 226.8,243.5 235.7,240 244.7,235.6 253.6,230.1 262.5,223.6 271.5,216.1 280.4,207.7 289.3,198.2 298.3,187.8 307.2,176.3 316.1,163.9 325.1,150.4 334,136" fill="none" stroke="#FFFFFF" stroke-width="5"/></g>
<g id="beads"><ellipse cx="76.7" cy="153.2" rx="6" ry="14" fill="#D9A441" stroke="#1E1A17" stroke-width="3" transform="rotate(57 76.7 153.2)"/><ellipse cx="76.7" cy="153.2" rx="2" ry="8" fill="#A8761F" transform="rotate(57 76.7 153.2)"/><circle cx="90.1" cy="172.7" r="15" fill="#2A4B8D" stroke="#1E1A17" stroke-width="3"/><circle cx="85.1" cy="167.7" r="5" fill="#5B7BC4"/><ellipse cx="103.5" cy="189.9" rx="6" ry="14" fill="#D9A441" stroke="#1E1A17" stroke-width="3" transform="rotate(50.3 103.5 189.9)"/><ellipse cx="103.5" cy="189.9" rx="2" ry="8" fill="#A8761F" transform="rotate(50.3 103.5 189.9)"/><circle cx="116.9" cy="204.9" r="15" fill="#2A4B8D" stroke="#1E1A17" stroke-width="3"/><circle cx="111.9" cy="199.9" r="5" fill="#5B7BC4"/><circle cx="283.1" cy="204.9" r="15" fill="#2A4B8D" stroke="#1E1A17" stroke-width="3"/><circle cx="278.1" cy="199.9" r="5" fill="#5B7BC4"/><ellipse cx="296.5" cy="189.9" rx="6" ry="14" fill="#D9A441" stroke="#1E1A17" stroke-width="3" transform="rotate(-50.3 296.5 189.9)"/><ellipse cx="296.5" cy="189.9" rx="2" ry="8" fill="#A8761F" transform="rotate(-50.3 296.5 189.9)"/><circle cx="309.9" cy="172.7" r="15" fill="#2A4B8D" stroke="#1E1A17" stroke-width="3"/><circle cx="304.9" cy="167.7" r="5" fill="#5B7BC4"/><ellipse cx="323.3" cy="153.2" rx="6" ry="14" fill="#D9A441" stroke="#1E1A17" stroke-width="3" transform="rotate(-57 323.3 153.2)"/><ellipse cx="323.3" cy="153.2" rx="2" ry="8" fill="#A8761F" transform="rotate(-57 323.3 153.2)"/></g>
<g id="lapis-bead"><polygon points="126,248 133.4,238.5 140.8,230 148.2,222.5 155.6,216 163,210.5 170.4,206 177.8,202.5 185.2,200 192.6,198.5 200,198 207.4,198.5 214.8,200 222.2,202.5 229.6,206 237,210.5 244.4,216 251.8,222.5 259.2,230 266.6,238.5 274,248 266.6,257.5 259.2,266 251.8,273.5 244.4,280 237,285.5 229.6,290 222.2,293.5 214.8,296 207.4,297.5 200,298 192.6,297.5 185.2,296 177.8,293.5 170.4,290 163,285.5 155.6,280 148.2,273.5 140.8,266 133.4,257.5" fill="#2A4B8D" stroke="#1E1A17" stroke-width="3"/><polygon points="156,240 161.7,234.4 167.3,229.4 173,225.2 178.7,221.8 184.3,219 190,217 195.7,215.7 201.3,215.1 207,215.2 212.7,216.1 218.3,217.7 224,220 218.3,219.2 212.7,218.9 207,219 201.3,219.6 195.7,220.6 190,222 184.3,223.9 178.7,226.2 173,229 167.3,232.2 161.7,235.9" fill="#5B7BC4"/><path d="M 126,248 Q 200,256 274,248" fill="none" stroke="#1E1A17" stroke-width="1.5"/><ellipse cx="124" cy="248" rx="9" ry="18" fill="#D9A441" stroke="#1E1A17" stroke-width="3"/><ellipse cx="276" cy="248" rx="9" ry="18" fill="#D9A441" stroke="#1E1A17" stroke-width="3"/><circle cx="174" cy="264" r="3.5" fill="#D9A441" stroke="#1E1A17" stroke-width="1.5"/><circle cx="210" cy="272" r="3.5" fill="#D9A441" stroke="#1E1A17" stroke-width="1.5"/><circle cx="234" cy="238" r="3.5" fill="#D9A441" stroke="#1E1A17" stroke-width="1.5"/><circle cx="160" cy="246" r="3.5" fill="#D9A441" stroke="#1E1A17" stroke-width="1.5"/><circle cx="222" cy="254" r="3.5" fill="#D9A441" stroke="#1E1A17" stroke-width="1.5"/><circle cx="194" cy="230" r="3.5" fill="#D9A441" stroke="#1E1A17" stroke-width="1.5"/><circle cx="242" cy="258" r="3.5" fill="#D9A441" stroke="#1E1A17" stroke-width="1.5"/><circle cx="186" cy="278" r="3.5" fill="#D9A441" stroke="#1E1A17" stroke-width="1.5"/></g>
</svg>
